<svg xmlns="http://www.w3.org/2000/svg" width="438" height="108" viewBox="0 0 438 108" fill="none">
<path d="M8 4C8 6.20914 6.20914 8 4 8C1.79086 8 0 6.20914 0 4C0 1.79086 1.79086 0 4 0C6.20914 0 8 1.79086 8 4Z" fill="#ffffff"/>
<path d="M18 4C18 6.20914 16.2091 8 14 8C11.7909 8 10 6.20914 10 4C10 1.79086 11.7909 0 14 0C16.2091 0 18 1.79086 18 4Z" fill="#ffffff"/>
<path d="M28 4C28 6.20914 26.2091 8 24 8C21.7909 8 20 6.20914 20 4C20 1.79086 21.7909 0 24 0C26.2091 0 28 1.79086 28 4Z" fill="#ffffff"/>
<path d="M38 4C38 6.20914 36.2091 8 34 8C31.7909 8 30 6.20914 30 4C30 1.79086 31.7909 0 34 0C36.2091 0 38 1.79086 38 4Z" fill="#ffffff"/>
<path d="M48 4C48 6.20914 46.2091 8 44 8C41.7909 8 40 6.20914 40 4C40 1.79086 41.7909 0 44 0C46.2091 0 48 1.79086 48 4Z" fill="#ffffff"/>
<path d="M58 4C58 6.20914 56.2091 8 54 8C51.7909 8 50 6.20914 50 4C50 1.79086 51.7909 0 54 0C56.2091 0 58 1.79086 58 4Z" fill="#ffffff"/>
<path d="M68 4C68 6.20914 66.2091 8 64 8C61.7909 8 60 6.20914 60 4C60 1.79086 61.7909 0 64 0C66.2091 0 68 1.79086 68 4Z" fill="#ffffff"/>
<path d="M78 4C78 6.20914 76.2091 8 74 8C71.7909 8 70 6.20914 70 4C70 1.79086 71.7909 0 74 0C76.2091 0 78 1.79086 78 4Z" fill="#ffffff"/>
<path d="M88 4C88 6.20914 86.2091 8 84 8C81.7909 8 80 6.20914 80 4C80 1.79086 81.7909 0 84 0C86.2091 0 88 1.79086 88 4Z" fill="#ffffff"/>
<path d="M98 4C98 6.20914 96.2091 8 94 8C91.7909 8 90 6.20914 90 4C90 1.79086 91.7909 0 94 0C96.2091 0 98 1.79086 98 4Z" fill="#ffffff"/>
<path d="M108 4C108 6.20914 106.209 8 104 8C101.791 8 100 6.20914 100 4C100 1.79086 101.791 0 104 0C106.209 0 108 1.79086 108 4Z" fill="#ffffff"/>
<path d="M118 4C118 6.20914 116.209 8 114 8C111.791 8 110 6.20914 110 4C110 1.79086 111.791 0 114 0C116.209 0 118 1.79086 118 4Z" fill="#ffffff"/>
<path d="M128 4C128 6.20914 126.209 8 124 8C121.791 8 120 6.20914 120 4C120 1.79086 121.791 0 124 0C126.209 0 128 1.79086 128 4Z" fill="#ffffff"/>
<path d="M138 4C138 6.20914 136.209 8 134 8C131.791 8 130 6.20914 130 4C130 1.79086 131.791 0 134 0C136.209 0 138 1.79086 138 4Z" fill="#ffffff"/>
<path d="M148 4C148 6.20914 146.209 8 144 8C141.791 8 140 6.20914 140 4C140 1.79086 141.791 0 144 0C146.209 0 148 1.79086 148 4Z" fill="#ffffff"/>
<path d="M158 4C158 6.20914 156.209 8 154 8C151.791 8 150 6.20914 150 4C150 1.79086 151.791 0 154 0C156.209 0 158 1.79086 158 4Z" fill="#ffffff"/>
<path d="M168 4C168 6.20914 166.209 8 164 8C161.791 8 160 6.20914 160 4C160 1.79086 161.791 0 164 0C166.209 0 168 1.79086 168 4Z" fill="#ffffff"/>
<path d="M178 4C178 6.20914 176.209 8 174 8C171.791 8 170 6.20914 170 4C170 1.79086 171.791 0 174 0C176.209 0 178 1.79086 178 4Z" fill="#ffffff"/>
<path d="M188 4C188 6.20914 186.209 8 184 8C181.791 8 180 6.20914 180 4C180 1.79086 181.791 0 184 0C186.209 0 188 1.79086 188 4Z" fill="#ffffff"/>
<path d="M198 4C198 6.20914 196.209 8 194 8C191.791 8 190 6.20914 190 4C190 1.79086 191.791 0 194 0C196.209 0 198 1.79086 198 4Z" fill="#ffffff"/>
<path d="M208 4C208 6.20914 206.209 8 204 8C201.791 8 200 6.20914 200 4C200 1.79086 201.791 0 204 0C206.209 0 208 1.79086 208 4Z" fill="#ffffff"/>
<path d="M218 4C218 6.20914 216.209 8 214 8C211.791 8 210 6.20914 210 4C210 1.79086 211.791 0 214 0C216.209 0 218 1.79086 218 4Z" fill="#ffffff"/>
<path d="M228 4C228 6.20914 226.209 8 224 8C221.791 8 220 6.20914 220 4C220 1.79086 221.791 0 224 0C226.209 0 228 1.79086 228 4Z" fill="#ffffff"/>
<path d="M238 4C238 6.20914 236.209 8 234 8C231.791 8 230 6.20914 230 4C230 1.79086 231.791 0 234 0C236.209 0 238 1.79086 238 4Z" fill="#ffffff"/>
<path d="M248 4C248 6.20914 246.209 8 244 8C241.791 8 240 6.20914 240 4C240 1.79086 241.791 0 244 0C246.209 0 248 1.79086 248 4Z" fill="#ffffff"/>
<path d="M258 4C258 6.20914 256.209 8 254 8C251.791 8 250 6.20914 250 4C250 1.79086 251.791 0 254 0C256.209 0 258 1.79086 258 4Z" fill="#ffffff"/>
<path d="M268 4C268 6.20914 266.209 8 264 8C261.791 8 260 6.20914 260 4C260 1.79086 261.791 0 264 0C266.209 0 268 1.79086 268 4Z" fill="#ffffff"/>
<path d="M278 4C278 6.20914 276.209 8 274 8C271.791 8 270 6.20914 270 4C270 1.79086 271.791 0 274 0C276.209 0 278 1.79086 278 4Z" fill="#ffffff"/>
<path d="M288 4C288 6.20914 286.209 8 284 8C281.791 8 280 6.20914 280 4C280 1.79086 281.791 0 284 0C286.209 0 288 1.79086 288 4Z" fill="#ffffff"/>
<path d="M298 4C298 6.20914 296.209 8 294 8C291.791 8 290 6.20914 290 4C290 1.79086 291.791 0 294 0C296.209 0 298 1.79086 298 4Z" fill="#ffffff"/>
<path d="M308 4C308 6.20914 306.209 8 304 8C301.791 8 300 6.20914 300 4C300 1.79086 301.791 0 304 0C306.209 0 308 1.79086 308 4Z" fill="#ffffff"/>
<path d="M318 4C318 6.20914 316.209 8 314 8C311.791 8 310 6.20914 310 4C310 1.79086 311.791 0 314 0C316.209 0 318 1.79086 318 4Z" fill="#ffffff"/>
<path d="M328 4C328 6.20914 326.209 8 324 8C321.791 8 320 6.20914 320 4C320 1.79086 321.791 0 324 0C326.209 0 328 1.79086 328 4Z" fill="#ffffff"/>
<path d="M338 4C338 6.20914 336.209 8 334 8C331.791 8 330 6.20914 330 4C330 1.79086 331.791 0 334 0C336.209 0 338 1.79086 338 4Z" fill="#ffffff"/>
<path d="M348 4C348 6.20914 346.209 8 344 8C341.791 8 340 6.20914 340 4C340 1.79086 341.791 0 344 0C346.209 0 348 1.79086 348 4Z" fill="#ffffff"/>
<path d="M358 4C358 6.20914 356.209 8 354 8C351.791 8 350 6.20914 350 4C350 1.79086 351.791 0 354 0C356.209 0 358 1.79086 358 4Z" fill="#ffffff"/>
<path d="M368 4C368 6.20914 366.209 8 364 8C361.791 8 360 6.20914 360 4C360 1.79086 361.791 0 364 0C366.209 0 368 1.79086 368 4Z" fill="#ffffff"/>
<path d="M378 4C378 6.20914 376.209 8 374 8C371.791 8 370 6.20914 370 4C370 1.79086 371.791 0 374 0C376.209 0 378 1.79086 378 4Z" fill="#ffffff"/>
<path d="M388 4C388 6.20914 386.209 8 384 8C381.791 8 380 6.20914 380 4C380 1.79086 381.791 0 384 0C386.209 0 388 1.79086 388 4Z" fill="#ffffff"/>
<path d="M398 4C398 6.20914 396.209 8 394 8C391.791 8 390 6.20914 390 4C390 1.79086 391.791 0 394 0C396.209 0 398 1.79086 398 4Z" fill="#ffffff"/>
<path d="M408 4C408 6.20914 406.209 8 404 8C401.791 8 400 6.20914 400 4C400 1.79086 401.791 0 404 0C406.209 0 408 1.79086 408 4Z" fill="#ffffff"/>
<path d="M418 4C418 6.20914 416.209 8 414 8C411.791 8 410 6.20914 410 4C410 1.79086 411.791 0 414 0C416.209 0 418 1.79086 418 4Z" fill="#ffffff"/>
<path d="M428 4C428 6.20914 426.209 8 424 8C421.791 8 420 6.20914 420 4C420 1.79086 421.791 0 424 0C426.209 0 428 1.79086 428 4Z" fill="#ffffff"/>
<path d="M438 4C438 6.20914 436.209 8 434 8C431.791 8 430 6.20914 430 4C430 1.79086 431.791 0 434 0C436.209 0 438 1.79086 438 4Z" fill="#ffffff"/>
<path d="M8 14C8 16.2091 6.20914 18 4 18C1.79086 18 0 16.2091 0 14C0 11.7909 1.79086 10 4 10C6.20914 10 8 11.7909 8 14Z" fill="#ffffff"/>
<path d="M18 14C18 16.2091 16.2091 18 14 18C11.7909 18 10 16.2091 10 14C10 11.7909 11.7909 10 14 10C16.2091 10 18 11.7909 18 14Z" fill="#ffffff"/>
<path d="M28 14C28 16.2091 26.2091 18 24 18C21.7909 18 20 16.2091 20 14C20 11.7909 21.7909 10 24 10C26.2091 10 28 11.7909 28 14Z" fill="#ffffff"/>
<path d="M38 14C38 16.2091 36.2091 18 34 18C31.7909 18 30 16.2091 30 14C30 11.7909 31.7909 10 34 10C36.2091 10 38 11.7909 38 14Z" fill="#ffffff"/>
<path d="M48 14C48 16.2091 46.2091 18 44 18C41.7909 18 40 16.2091 40 14C40 11.7909 41.7909 10 44 10C46.2091 10 48 11.7909 48 14Z" fill="#ffffff"/>
<path d="M58 14C58 16.2091 56.2091 18 54 18C51.7909 18 50 16.2091 50 14C50 11.7909 51.7909 10 54 10C56.2091 10 58 11.7909 58 14Z" fill="#ffffff"/>
<path d="M68 14C68 16.2091 66.2091 18 64 18C61.7909 18 60 16.2091 60 14C60 11.7909 61.7909 10 64 10C66.2091 10 68 11.7909 68 14Z" fill="#ffffff"/>
<path d="M78 14C78 16.2091 76.2091 18 74 18C71.7909 18 70 16.2091 70 14C70 11.7909 71.7909 10 74 10C76.2091 10 78 11.7909 78 14Z" fill="#ffffff"/>
<path d="M88 14C88 16.2091 86.2091 18 84 18C81.7909 18 80 16.2091 80 14C80 11.7909 81.7909 10 84 10C86.2091 10 88 11.7909 88 14Z" fill="#ffffff"/>
<path d="M98 14C98 16.2091 96.2091 18 94 18C91.7909 18 90 16.2091 90 14C90 11.7909 91.7909 10 94 10C96.2091 10 98 11.7909 98 14Z" fill="#ffffff"/>
<path d="M108 14C108 16.2091 106.209 18 104 18C101.791 18 100 16.2091 100 14C100 11.7909 101.791 10 104 10C106.209 10 108 11.7909 108 14Z" fill="#ffffff"/>
<path d="M118 14C118 16.2091 116.209 18 114 18C111.791 18 110 16.2091 110 14C110 11.7909 111.791 10 114 10C116.209 10 118 11.7909 118 14Z" fill="#ffffff"/>
<path d="M128 14C128 16.2091 126.209 18 124 18C121.791 18 120 16.2091 120 14C120 11.7909 121.791 10 124 10C126.209 10 128 11.7909 128 14Z" fill="#ffffff"/>
<path d="M138 14C138 16.2091 136.209 18 134 18C131.791 18 130 16.2091 130 14C130 11.7909 131.791 10 134 10C136.209 10 138 11.7909 138 14Z" fill="#ffffff"/>
<path d="M148 14C148 16.2091 146.209 18 144 18C141.791 18 140 16.2091 140 14C140 11.7909 141.791 10 144 10C146.209 10 148 11.7909 148 14Z" fill="#ffffff"/>
<path d="M158 14C158 16.2091 156.209 18 154 18C151.791 18 150 16.2091 150 14C150 11.7909 151.791 10 154 10C156.209 10 158 11.7909 158 14Z" fill="#ffffff"/>
<path d="M168 14C168 16.2091 166.209 18 164 18C161.791 18 160 16.2091 160 14C160 11.7909 161.791 10 164 10C166.209 10 168 11.7909 168 14Z" fill="#ffffff"/>
<path d="M178 14C178 16.2091 176.209 18 174 18C171.791 18 170 16.2091 170 14C170 11.7909 171.791 10 174 10C176.209 10 178 11.7909 178 14Z" fill="#ffffff"/>
<path d="M188 14C188 16.2091 186.209 18 184 18C181.791 18 180 16.2091 180 14C180 11.7909 181.791 10 184 10C186.209 10 188 11.7909 188 14Z" fill="#ffffff"/>
<path d="M198 14C198 16.2091 196.209 18 194 18C191.791 18 190 16.2091 190 14C190 11.7909 191.791 10 194 10C196.209 10 198 11.7909 198 14Z" fill="#ffffff"/>
<path d="M208 14C208 16.2091 206.209 18 204 18C201.791 18 200 16.2091 200 14C200 11.7909 201.791 10 204 10C206.209 10 208 11.7909 208 14Z" fill="#ffffff"/>
<path d="M218 14C218 16.2091 216.209 18 214 18C211.791 18 210 16.2091 210 14C210 11.7909 211.791 10 214 10C216.209 10 218 11.7909 218 14Z" fill="#ffffff"/>
<path d="M228 14C228 16.2091 226.209 18 224 18C221.791 18 220 16.2091 220 14C220 11.7909 221.791 10 224 10C226.209 10 228 11.7909 228 14Z" fill="#ffffff"/>
<path d="M238 14C238 16.2091 236.209 18 234 18C231.791 18 230 16.2091 230 14C230 11.7909 231.791 10 234 10C236.209 10 238 11.7909 238 14Z" fill="#ffffff"/>
<path d="M248 14C248 16.2091 246.209 18 244 18C241.791 18 240 16.2091 240 14C240 11.7909 241.791 10 244 10C246.209 10 248 11.7909 248 14Z" fill="#ffffff"/>
<path d="M258 14C258 16.2091 256.209 18 254 18C251.791 18 250 16.2091 250 14C250 11.7909 251.791 10 254 10C256.209 10 258 11.7909 258 14Z" fill="#ffffff"/>
<path d="M268 14C268 16.2091 266.209 18 264 18C261.791 18 260 16.2091 260 14C260 11.7909 261.791 10 264 10C266.209 10 268 11.7909 268 14Z" fill="#ffffff"/>
<path d="M278 14C278 16.2091 276.209 18 274 18C271.791 18 270 16.2091 270 14C270 11.7909 271.791 10 274 10C276.209 10 278 11.7909 278 14Z" fill="#ffffff"/>
<path d="M288 14C288 16.2091 286.209 18 284 18C281.791 18 280 16.2091 280 14C280 11.7909 281.791 10 284 10C286.209 10 288 11.7909 288 14Z" fill="#ffffff"/>
<path d="M298 14C298 16.2091 296.209 18 294 18C291.791 18 290 16.2091 290 14C290 11.7909 291.791 10 294 10C296.209 10 298 11.7909 298 14Z" fill="#ffffff"/>
<path d="M308 14C308 16.2091 306.209 18 304 18C301.791 18 300 16.2091 300 14C300 11.7909 301.791 10 304 10C306.209 10 308 11.7909 308 14Z" fill="#ffffff"/>
<path d="M318 14C318 16.2091 316.209 18 314 18C311.791 18 310 16.2091 310 14C310 11.7909 311.791 10 314 10C316.209 10 318 11.7909 318 14Z" fill="#ffffff"/>
<path d="M328 14C328 16.2091 326.209 18 324 18C321.791 18 320 16.2091 320 14C320 11.7909 321.791 10 324 10C326.209 10 328 11.7909 328 14Z" fill="#ffffff"/>
<path d="M338 14C338 16.2091 336.209 18 334 18C331.791 18 330 16.2091 330 14C330 11.7909 331.791 10 334 10C336.209 10 338 11.7909 338 14Z" fill="#ffffff"/>
<path d="M348 14C348 16.2091 346.209 18 344 18C341.791 18 340 16.2091 340 14C340 11.7909 341.791 10 344 10C346.209 10 348 11.7909 348 14Z" fill="#ffffff"/>
<path d="M358 14C358 16.2091 356.209 18 354 18C351.791 18 350 16.2091 350 14C350 11.7909 351.791 10 354 10C356.209 10 358 11.7909 358 14Z" fill="#ffffff"/>
<path d="M368 14C368 16.2091 366.209 18 364 18C361.791 18 360 16.2091 360 14C360 11.7909 361.791 10 364 10C366.209 10 368 11.7909 368 14Z" fill="#ffffff"/>
<path d="M378 14C378 16.2091 376.209 18 374 18C371.791 18 370 16.2091 370 14C370 11.7909 371.791 10 374 10C376.209 10 378 11.7909 378 14Z" fill="#ffffff"/>
<path d="M388 14C388 16.2091 386.209 18 384 18C381.791 18 380 16.2091 380 14C380 11.7909 381.791 10 384 10C386.209 10 388 11.7909 388 14Z" fill="#ffffff"/>
<path d="M398 14C398 16.2091 396.209 18 394 18C391.791 18 390 16.2091 390 14C390 11.7909 391.791 10 394 10C396.209 10 398 11.7909 398 14Z" fill="#ffffff"/>
<path d="M408 14C408 16.2091 406.209 18 404 18C401.791 18 400 16.2091 400 14C400 11.7909 401.791 10 404 10C406.209 10 408 11.7909 408 14Z" fill="#ffffff"/>
<path d="M418 14C418 16.2091 416.209 18 414 18C411.791 18 410 16.2091 410 14C410 11.7909 411.791 10 414 10C416.209 10 418 11.7909 418 14Z" fill="#ffffff"/>
<path d="M428 14C428 16.2091 426.209 18 424 18C421.791 18 420 16.2091 420 14C420 11.7909 421.791 10 424 10C426.209 10 428 11.7909 428 14Z" fill="#ffffff"/>
<path d="M438 14C438 16.2091 436.209 18 434 18C431.791 18 430 16.2091 430 14C430 11.7909 431.791 10 434 10C436.209 10 438 11.7909 438 14Z" fill="#ffffff"/>
<path d="M8 24C8 26.2091 6.20914 28 4 28C1.79086 28 0 26.2091 0 24C0 21.7909 1.79086 20 4 20C6.20914 20 8 21.7909 8 24Z" fill="#ffffff"/>
<path d="M18 24C18 26.2091 16.2091 28 14 28C11.7909 28 10 26.2091 10 24C10 21.7909 11.7909 20 14 20C16.2091 20 18 21.7909 18 24Z" fill="#ffffff"/>
<path d="M28 24C28 26.2091 26.2091 28 24 28C21.7909 28 20 26.2091 20 24C20 21.7909 21.7909 20 24 20C26.2091 20 28 21.7909 28 24Z" fill="#ffffff"/>
<path d="M38 24C38 26.2091 36.2091 28 34 28C31.7909 28 30 26.2091 30 24C30 21.7909 31.7909 20 34 20C36.2091 20 38 21.7909 38 24Z" fill="#ffffff"/>
<path d="M48 24C48 26.2091 46.2091 28 44 28C41.7909 28 40 26.2091 40 24C40 21.7909 41.7909 20 44 20C46.2091 20 48 21.7909 48 24Z" fill="#ffffff"/>
<path d="M58 24C58 26.2091 56.2091 28 54 28C51.7909 28 50 26.2091 50 24C50 21.7909 51.7909 20 54 20C56.2091 20 58 21.7909 58 24Z" fill="#ffffff"/>
<path d="M68 24C68 26.2091 66.2091 28 64 28C61.7909 28 60 26.2091 60 24C60 21.7909 61.7909 20 64 20C66.2091 20 68 21.7909 68 24Z" fill="#ffffff"/>
<path d="M78 24C78 26.2091 76.2091 28 74 28C71.7909 28 70 26.2091 70 24C70 21.7909 71.7909 20 74 20C76.2091 20 78 21.7909 78 24Z" fill="#ffffff"/>
<path d="M88 24C88 26.2091 86.2091 28 84 28C81.7909 28 80 26.2091 80 24C80 21.7909 81.7909 20 84 20C86.2091 20 88 21.7909 88 24Z" fill="#ffffff"/>
<path d="M98 24C98 26.2091 96.2091 28 94 28C91.7909 28 90 26.2091 90 24C90 21.7909 91.7909 20 94 20C96.2091 20 98 21.7909 98 24Z" fill="#ffffff"/>
<path d="M108 24C108 26.2091 106.209 28 104 28C101.791 28 100 26.2091 100 24C100 21.7909 101.791 20 104 20C106.209 20 108 21.7909 108 24Z" fill="#ffffff"/>
<path d="M118 24C118 26.2091 116.209 28 114 28C111.791 28 110 26.2091 110 24C110 21.7909 111.791 20 114 20C116.209 20 118 21.7909 118 24Z" fill="#ffffff"/>
<path d="M128 24C128 26.2091 126.209 28 124 28C121.791 28 120 26.2091 120 24C120 21.7909 121.791 20 124 20C126.209 20 128 21.7909 128 24Z" fill="#ffffff"/>
<path d="M138 24C138 26.2091 136.209 28 134 28C131.791 28 130 26.2091 130 24C130 21.7909 131.791 20 134 20C136.209 20 138 21.7909 138 24Z" fill="#ffffff"/>
<path d="M148 24C148 26.2091 146.209 28 144 28C141.791 28 140 26.2091 140 24C140 21.7909 141.791 20 144 20C146.209 20 148 21.7909 148 24Z" fill="#ffffff"/>
<path d="M158 24C158 26.2091 156.209 28 154 28C151.791 28 150 26.2091 150 24C150 21.7909 151.791 20 154 20C156.209 20 158 21.7909 158 24Z" fill="#ffffff"/>
<path d="M168 24C168 26.2091 166.209 28 164 28C161.791 28 160 26.2091 160 24C160 21.7909 161.791 20 164 20C166.209 20 168 21.7909 168 24Z" fill="#ffffff"/>
<path d="M178 24C178 26.2091 176.209 28 174 28C171.791 28 170 26.2091 170 24C170 21.7909 171.791 20 174 20C176.209 20 178 21.7909 178 24Z" fill="#ffffff"/>
<path d="M188 24C188 26.2091 186.209 28 184 28C181.791 28 180 26.2091 180 24C180 21.7909 181.791 20 184 20C186.209 20 188 21.7909 188 24Z" fill="#ffffff"/>
<path d="M198 24C198 26.2091 196.209 28 194 28C191.791 28 190 26.2091 190 24C190 21.7909 191.791 20 194 20C196.209 20 198 21.7909 198 24Z" fill="#ffffff"/>
<path d="M208 24C208 26.2091 206.209 28 204 28C201.791 28 200 26.2091 200 24C200 21.7909 201.791 20 204 20C206.209 20 208 21.7909 208 24Z" fill="#ffffff"/>
<path d="M218 24C218 26.2091 216.209 28 214 28C211.791 28 210 26.2091 210 24C210 21.7909 211.791 20 214 20C216.209 20 218 21.7909 218 24Z" fill="#ffffff"/>
<path d="M228 24C228 26.2091 226.209 28 224 28C221.791 28 220 26.2091 220 24C220 21.7909 221.791 20 224 20C226.209 20 228 21.7909 228 24Z" fill="#ffffff"/>
<path d="M238 24C238 26.2091 236.209 28 234 28C231.791 28 230 26.2091 230 24C230 21.7909 231.791 20 234 20C236.209 20 238 21.7909 238 24Z" fill="#ffffff"/>
<path d="M248 24C248 26.2091 246.209 28 244 28C241.791 28 240 26.2091 240 24C240 21.7909 241.791 20 244 20C246.209 20 248 21.7909 248 24Z" fill="#ffffff"/>
<path d="M258 24C258 26.2091 256.209 28 254 28C251.791 28 250 26.2091 250 24C250 21.7909 251.791 20 254 20C256.209 20 258 21.7909 258 24Z" fill="#ffffff"/>
<path d="M268 24C268 26.2091 266.209 28 264 28C261.791 28 260 26.2091 260 24C260 21.7909 261.791 20 264 20C266.209 20 268 21.7909 268 24Z" fill="#ffffff"/>
<path d="M278 24C278 26.2091 276.209 28 274 28C271.791 28 270 26.2091 270 24C270 21.7909 271.791 20 274 20C276.209 20 278 21.7909 278 24Z" fill="#ffffff"/>
<path d="M288 24C288 26.2091 286.209 28 284 28C281.791 28 280 26.2091 280 24C280 21.7909 281.791 20 284 20C286.209 20 288 21.7909 288 24Z" fill="#ffffff"/>
<path d="M298 24C298 26.2091 296.209 28 294 28C291.791 28 290 26.2091 290 24C290 21.7909 291.791 20 294 20C296.209 20 298 21.7909 298 24Z" fill="#ffffff"/>
<path d="M308 24C308 26.2091 306.209 28 304 28C301.791 28 300 26.2091 300 24C300 21.7909 301.791 20 304 20C306.209 20 308 21.7909 308 24Z" fill="#ffffff"/>
<path d="M318 24C318 26.2091 316.209 28 314 28C311.791 28 310 26.2091 310 24C310 21.7909 311.791 20 314 20C316.209 20 318 21.7909 318 24Z" fill="#ffffff"/>
<path d="M328 24C328 26.2091 326.209 28 324 28C321.791 28 320 26.2091 320 24C320 21.7909 321.791 20 324 20C326.209 20 328 21.7909 328 24Z" fill="#ffffff"/>
<path d="M338 24C338 26.2091 336.209 28 334 28C331.791 28 330 26.2091 330 24C330 21.7909 331.791 20 334 20C336.209 20 338 21.7909 338 24Z" fill="#ffffff"/>
<path d="M348 24C348 26.2091 346.209 28 344 28C341.791 28 340 26.2091 340 24C340 21.7909 341.791 20 344 20C346.209 20 348 21.7909 348 24Z" fill="#ffffff"/>
<path d="M358 24C358 26.2091 356.209 28 354 28C351.791 28 350 26.2091 350 24C350 21.7909 351.791 20 354 20C356.209 20 358 21.7909 358 24Z" fill="#ffffff"/>
<path d="M368 24C368 26.2091 366.209 28 364 28C361.791 28 360 26.2091 360 24C360 21.7909 361.791 20 364 20C366.209 20 368 21.7909 368 24Z" fill="#ffffff"/>
<path d="M378 24C378 26.2091 376.209 28 374 28C371.791 28 370 26.2091 370 24C370 21.7909 371.791 20 374 20C376.209 20 378 21.7909 378 24Z" fill="#ffffff"/>
<path d="M388 24C388 26.2091 386.209 28 384 28C381.791 28 380 26.2091 380 24C380 21.7909 381.791 20 384 20C386.209 20 388 21.7909 388 24Z" fill="#ffffff"/>
<path d="M398 24C398 26.2091 396.209 28 394 28C391.791 28 390 26.2091 390 24C390 21.7909 391.791 20 394 20C396.209 20 398 21.7909 398 24Z" fill="#ffffff"/>
<path d="M408 24C408 26.2091 406.209 28 404 28C401.791 28 400 26.2091 400 24C400 21.7909 401.791 20 404 20C406.209 20 408 21.7909 408 24Z" fill="#ffffff"/>
<path d="M418 24C418 26.2091 416.209 28 414 28C411.791 28 410 26.2091 410 24C410 21.7909 411.791 20 414 20C416.209 20 418 21.7909 418 24Z" fill="#ffffff"/>
<path d="M428 24C428 26.2091 426.209 28 424 28C421.791 28 420 26.2091 420 24C420 21.7909 421.791 20 424 20C426.209 20 428 21.7909 428 24Z" fill="#ffffff"/>
<path d="M438 24C438 26.2091 436.209 28 434 28C431.791 28 430 26.2091 430 24C430 21.7909 431.791 20 434 20C436.209 20 438 21.7909 438 24Z" fill="#ffffff"/>
<path d="M8 34C8 36.2091 6.20914 38 4 38C1.79086 38 0 36.2091 0 34C0 31.7909 1.79086 30 4 30C6.20914 30 8 31.7909 8 34Z" fill="#ffffff"/>
<path d="M18 34C18 36.2091 16.2091 38 14 38C11.7909 38 10 36.2091 10 34C10 31.7909 11.7909 30 14 30C16.2091 30 18 31.7909 18 34Z" fill="#ffffff"/>
<path d="M28 34C28 36.2091 26.2091 38 24 38C21.7909 38 20 36.2091 20 34C20 31.7909 21.7909 30 24 30C26.2091 30 28 31.7909 28 34Z" fill="#ffffff"/>
<path d="M38 34C38 36.2091 36.2091 38 34 38C31.7909 38 30 36.2091 30 34C30 31.7909 31.7909 30 34 30C36.2091 30 38 31.7909 38 34Z" fill="#ffffff"/>
<path d="M48 34C48 36.2091 46.2091 38 44 38C41.7909 38 40 36.2091 40 34C40 31.7909 41.7909 30 44 30C46.2091 30 48 31.7909 48 34Z" fill="#ffffff"/>
<path d="M58 34C58 36.2091 56.2091 38 54 38C51.7909 38 50 36.2091 50 34C50 31.7909 51.7909 30 54 30C56.2091 30 58 31.7909 58 34Z" fill="#ffffff"/>
<path d="M68 34C68 36.2091 66.2091 38 64 38C61.7909 38 60 36.2091 60 34C60 31.7909 61.7909 30 64 30C66.2091 30 68 31.7909 68 34Z" fill="#ffffff"/>
<path d="M78 34C78 36.2091 76.2091 38 74 38C71.7909 38 70 36.2091 70 34C70 31.7909 71.7909 30 74 30C76.2091 30 78 31.7909 78 34Z" fill="#ffffff"/>
<path d="M88 34C88 36.2091 86.2091 38 84 38C81.7909 38 80 36.2091 80 34C80 31.7909 81.7909 30 84 30C86.2091 30 88 31.7909 88 34Z" fill="#ffffff"/>
<path d="M98 34C98 36.2091 96.2091 38 94 38C91.7909 38 90 36.2091 90 34C90 31.7909 91.7909 30 94 30C96.2091 30 98 31.7909 98 34Z" fill="#ffffff"/>
<path d="M108 34C108 36.2091 106.209 38 104 38C101.791 38 100 36.2091 100 34C100 31.7909 101.791 30 104 30C106.209 30 108 31.7909 108 34Z" fill="#ffffff"/>
<path d="M118 34C118 36.2091 116.209 38 114 38C111.791 38 110 36.2091 110 34C110 31.7909 111.791 30 114 30C116.209 30 118 31.7909 118 34Z" fill="#ffffff"/>
<path d="M128 34C128 36.2091 126.209 38 124 38C121.791 38 120 36.2091 120 34C120 31.7909 121.791 30 124 30C126.209 30 128 31.7909 128 34Z" fill="#ffffff"/>
<path d="M138 34C138 36.2091 136.209 38 134 38C131.791 38 130 36.2091 130 34C130 31.7909 131.791 30 134 30C136.209 30 138 31.7909 138 34Z" fill="#ffffff"/>
<path d="M148 34C148 36.2091 146.209 38 144 38C141.791 38 140 36.2091 140 34C140 31.7909 141.791 30 144 30C146.209 30 148 31.7909 148 34Z" fill="#ffffff"/>
<path d="M158 34C158 36.2091 156.209 38 154 38C151.791 38 150 36.2091 150 34C150 31.7909 151.791 30 154 30C156.209 30 158 31.7909 158 34Z" fill="#ffffff"/>
<path d="M168 34C168 36.2091 166.209 38 164 38C161.791 38 160 36.2091 160 34C160 31.7909 161.791 30 164 30C166.209 30 168 31.7909 168 34Z" fill="#ffffff"/>
<path d="M178 34C178 36.2091 176.209 38 174 38C171.791 38 170 36.2091 170 34C170 31.7909 171.791 30 174 30C176.209 30 178 31.7909 178 34Z" fill="#ffffff"/>
<path d="M188 34C188 36.2091 186.209 38 184 38C181.791 38 180 36.2091 180 34C180 31.7909 181.791 30 184 30C186.209 30 188 31.7909 188 34Z" fill="#ffffff"/>
<path d="M198 34C198 36.2091 196.209 38 194 38C191.791 38 190 36.2091 190 34C190 31.7909 191.791 30 194 30C196.209 30 198 31.7909 198 34Z" fill="#ffffff"/>
<path d="M208 34C208 36.2091 206.209 38 204 38C201.791 38 200 36.2091 200 34C200 31.7909 201.791 30 204 30C206.209 30 208 31.7909 208 34Z" fill="#ffffff"/>
<path d="M218 34C218 36.2091 216.209 38 214 38C211.791 38 210 36.2091 210 34C210 31.7909 211.791 30 214 30C216.209 30 218 31.7909 218 34Z" fill="#ffffff"/>
<path d="M228 34C228 36.2091 226.209 38 224 38C221.791 38 220 36.2091 220 34C220 31.7909 221.791 30 224 30C226.209 30 228 31.7909 228 34Z" fill="#ffffff"/>
<path d="M238 34C238 36.2091 236.209 38 234 38C231.791 38 230 36.2091 230 34C230 31.7909 231.791 30 234 30C236.209 30 238 31.7909 238 34Z" fill="#ffffff"/>
<path d="M248 34C248 36.2091 246.209 38 244 38C241.791 38 240 36.2091 240 34C240 31.7909 241.791 30 244 30C246.209 30 248 31.7909 248 34Z" fill="#ffffff"/>
<path d="M258 34C258 36.2091 256.209 38 254 38C251.791 38 250 36.2091 250 34C250 31.7909 251.791 30 254 30C256.209 30 258 31.7909 258 34Z" fill="#ffffff"/>
<path d="M268 34C268 36.2091 266.209 38 264 38C261.791 38 260 36.2091 260 34C260 31.7909 261.791 30 264 30C266.209 30 268 31.7909 268 34Z" fill="#ffffff"/>
<path d="M278 34C278 36.2091 276.209 38 274 38C271.791 38 270 36.2091 270 34C270 31.7909 271.791 30 274 30C276.209 30 278 31.7909 278 34Z" fill="#ffffff"/>
<path d="M288 34C288 36.2091 286.209 38 284 38C281.791 38 280 36.2091 280 34C280 31.7909 281.791 30 284 30C286.209 30 288 31.7909 288 34Z" fill="#ffffff"/>
<path d="M298 34C298 36.2091 296.209 38 294 38C291.791 38 290 36.2091 290 34C290 31.7909 291.791 30 294 30C296.209 30 298 31.7909 298 34Z" fill="#ffffff"/>
<path d="M308 34C308 36.2091 306.209 38 304 38C301.791 38 300 36.2091 300 34C300 31.7909 301.791 30 304 30C306.209 30 308 31.7909 308 34Z" fill="#ffffff"/>
<path d="M318 34C318 36.2091 316.209 38 314 38C311.791 38 310 36.2091 310 34C310 31.7909 311.791 30 314 30C316.209 30 318 31.7909 318 34Z" fill="#ffffff"/>
<path d="M328 34C328 36.2091 326.209 38 324 38C321.791 38 320 36.2091 320 34C320 31.7909 321.791 30 324 30C326.209 30 328 31.7909 328 34Z" fill="#ffffff"/>
<path d="M338 34C338 36.2091 336.209 38 334 38C331.791 38 330 36.2091 330 34C330 31.7909 331.791 30 334 30C336.209 30 338 31.7909 338 34Z" fill="#ffffff"/>
<path d="M348 34C348 36.2091 346.209 38 344 38C341.791 38 340 36.2091 340 34C340 31.7909 341.791 30 344 30C346.209 30 348 31.7909 348 34Z" fill="#ffffff"/>
<path d="M358 34C358 36.2091 356.209 38 354 38C351.791 38 350 36.2091 350 34C350 31.7909 351.791 30 354 30C356.209 30 358 31.7909 358 34Z" fill="#ffffff"/>
<path d="M368 34C368 36.2091 366.209 38 364 38C361.791 38 360 36.2091 360 34C360 31.7909 361.791 30 364 30C366.209 30 368 31.7909 368 34Z" fill="#ffffff"/>
<path d="M378 34C378 36.2091 376.209 38 374 38C371.791 38 370 36.2091 370 34C370 31.7909 371.791 30 374 30C376.209 30 378 31.7909 378 34Z" fill="#ffffff"/>
<path d="M388 34C388 36.2091 386.209 38 384 38C381.791 38 380 36.2091 380 34C380 31.7909 381.791 30 384 30C386.209 30 388 31.7909 388 34Z" fill="#ffffff"/>
<path d="M398 34C398 36.2091 396.209 38 394 38C391.791 38 390 36.2091 390 34C390 31.7909 391.791 30 394 30C396.209 30 398 31.7909 398 34Z" fill="#ffffff"/>
<path d="M408 34C408 36.2091 406.209 38 404 38C401.791 38 400 36.2091 400 34C400 31.7909 401.791 30 404 30C406.209 30 408 31.7909 408 34Z" fill="#ffffff"/>
<path d="M418 34C418 36.2091 416.209 38 414 38C411.791 38 410 36.2091 410 34C410 31.7909 411.791 30 414 30C416.209 30 418 31.7909 418 34Z" fill="#ffffff"/>
<path d="M428 34C428 36.2091 426.209 38 424 38C421.791 38 420 36.2091 420 34C420 31.7909 421.791 30 424 30C426.209 30 428 31.7909 428 34Z" fill="#ffffff"/>
<path d="M438 34C438 36.2091 436.209 38 434 38C431.791 38 430 36.2091 430 34C430 31.7909 431.791 30 434 30C436.209 30 438 31.7909 438 34Z" fill="#ffffff"/>
<path d="M8 44C8 46.2091 6.20914 48 4 48C1.79086 48 0 46.2091 0 44C0 41.7909 1.79086 40 4 40C6.20914 40 8 41.7909 8 44Z" fill="#ffffff"/>
<path d="M18 44C18 46.2091 16.2091 48 14 48C11.7909 48 10 46.2091 10 44C10 41.7909 11.7909 40 14 40C16.2091 40 18 41.7909 18 44Z" fill="#ffffff"/>
<path d="M28 44C28 46.2091 26.2091 48 24 48C21.7909 48 20 46.2091 20 44C20 41.7909 21.7909 40 24 40C26.2091 40 28 41.7909 28 44Z" fill="#ffffff"/>
<path d="M38 44C38 46.2091 36.2091 48 34 48C31.7909 48 30 46.2091 30 44C30 41.7909 31.7909 40 34 40C36.2091 40 38 41.7909 38 44Z" fill="#ffffff"/>
<path d="M48 44C48 46.2091 46.2091 48 44 48C41.7909 48 40 46.2091 40 44C40 41.7909 41.7909 40 44 40C46.2091 40 48 41.7909 48 44Z" fill="#ffffff"/>
<path d="M58 44C58 46.2091 56.2091 48 54 48C51.7909 48 50 46.2091 50 44C50 41.7909 51.7909 40 54 40C56.2091 40 58 41.7909 58 44Z" fill="#ffffff"/>
<path d="M68 44C68 46.2091 66.2091 48 64 48C61.7909 48 60 46.2091 60 44C60 41.7909 61.7909 40 64 40C66.2091 40 68 41.7909 68 44Z" fill="#ffffff"/>
<path d="M78 44C78 46.2091 76.2091 48 74 48C71.7909 48 70 46.2091 70 44C70 41.7909 71.7909 40 74 40C76.2091 40 78 41.7909 78 44Z" fill="#ffffff"/>
<path d="M88 44C88 46.2091 86.2091 48 84 48C81.7909 48 80 46.2091 80 44C80 41.7909 81.7909 40 84 40C86.2091 40 88 41.7909 88 44Z" fill="#ffffff"/>
<path d="M98 44C98 46.2091 96.2091 48 94 48C91.7909 48 90 46.2091 90 44C90 41.7909 91.7909 40 94 40C96.2091 40 98 41.7909 98 44Z" fill="#ffffff"/>
<path d="M108 44C108 46.2091 106.209 48 104 48C101.791 48 100 46.2091 100 44C100 41.7909 101.791 40 104 40C106.209 40 108 41.7909 108 44Z" fill="#ffffff"/>
<path d="M118 44C118 46.2091 116.209 48 114 48C111.791 48 110 46.2091 110 44C110 41.7909 111.791 40 114 40C116.209 40 118 41.7909 118 44Z" fill="#ffffff"/>
<path d="M128 44C128 46.2091 126.209 48 124 48C121.791 48 120 46.2091 120 44C120 41.7909 121.791 40 124 40C126.209 40 128 41.7909 128 44Z" fill="#ffffff"/>
<path d="M138 44C138 46.2091 136.209 48 134 48C131.791 48 130 46.2091 130 44C130 41.7909 131.791 40 134 40C136.209 40 138 41.7909 138 44Z" fill="#ffffff"/>
<path d="M148 44C148 46.2091 146.209 48 144 48C141.791 48 140 46.2091 140 44C140 41.7909 141.791 40 144 40C146.209 40 148 41.7909 148 44Z" fill="#ffffff"/>
<path d="M158 44C158 46.2091 156.209 48 154 48C151.791 48 150 46.2091 150 44C150 41.7909 151.791 40 154 40C156.209 40 158 41.7909 158 44Z" fill="#ffffff"/>
<path d="M168 44C168 46.2091 166.209 48 164 48C161.791 48 160 46.2091 160 44C160 41.7909 161.791 40 164 40C166.209 40 168 41.7909 168 44Z" fill="#ffffff"/>
<path d="M178 44C178 46.2091 176.209 48 174 48C171.791 48 170 46.2091 170 44C170 41.7909 171.791 40 174 40C176.209 40 178 41.7909 178 44Z" fill="#ffffff"/>
<path d="M188 44C188 46.2091 186.209 48 184 48C181.791 48 180 46.2091 180 44C180 41.7909 181.791 40 184 40C186.209 40 188 41.7909 188 44Z" fill="#ffffff"/>
<path d="M198 44C198 46.2091 196.209 48 194 48C191.791 48 190 46.2091 190 44C190 41.7909 191.791 40 194 40C196.209 40 198 41.7909 198 44Z" fill="#ffffff"/>
<path d="M208 44C208 46.2091 206.209 48 204 48C201.791 48 200 46.2091 200 44C200 41.7909 201.791 40 204 40C206.209 40 208 41.7909 208 44Z" fill="#ffffff"/>
<path d="M218 44C218 46.2091 216.209 48 214 48C211.791 48 210 46.2091 210 44C210 41.7909 211.791 40 214 40C216.209 40 218 41.7909 218 44Z" fill="#ffffff"/>
<path d="M228 44C228 46.2091 226.209 48 224 48C221.791 48 220 46.2091 220 44C220 41.7909 221.791 40 224 40C226.209 40 228 41.7909 228 44Z" fill="#ffffff"/>
<path d="M238 44C238 46.2091 236.209 48 234 48C231.791 48 230 46.2091 230 44C230 41.7909 231.791 40 234 40C236.209 40 238 41.7909 238 44Z" fill="#ffffff"/>
<path d="M248 44C248 46.2091 246.209 48 244 48C241.791 48 240 46.2091 240 44C240 41.7909 241.791 40 244 40C246.209 40 248 41.7909 248 44Z" fill="#ffffff"/>
<path d="M258 44C258 46.2091 256.209 48 254 48C251.791 48 250 46.2091 250 44C250 41.7909 251.791 40 254 40C256.209 40 258 41.7909 258 44Z" fill="#ffffff"/>
<path d="M268 44C268 46.2091 266.209 48 264 48C261.791 48 260 46.2091 260 44C260 41.7909 261.791 40 264 40C266.209 40 268 41.7909 268 44Z" fill="#ffffff"/>
<path d="M278 44C278 46.2091 276.209 48 274 48C271.791 48 270 46.2091 270 44C270 41.7909 271.791 40 274 40C276.209 40 278 41.7909 278 44Z" fill="#ffffff"/>
<path d="M288 44C288 46.2091 286.209 48 284 48C281.791 48 280 46.2091 280 44C280 41.7909 281.791 40 284 40C286.209 40 288 41.7909 288 44Z" fill="#ffffff"/>
<path d="M298 44C298 46.2091 296.209 48 294 48C291.791 48 290 46.2091 290 44C290 41.7909 291.791 40 294 40C296.209 40 298 41.7909 298 44Z" fill="#ffffff"/>
<path d="M308 44C308 46.2091 306.209 48 304 48C301.791 48 300 46.2091 300 44C300 41.7909 301.791 40 304 40C306.209 40 308 41.7909 308 44Z" fill="#ffffff"/>
<path d="M318 44C318 46.2091 316.209 48 314 48C311.791 48 310 46.2091 310 44C310 41.7909 311.791 40 314 40C316.209 40 318 41.7909 318 44Z" fill="#ffffff"/>
<path d="M328 44C328 46.2091 326.209 48 324 48C321.791 48 320 46.2091 320 44C320 41.7909 321.791 40 324 40C326.209 40 328 41.7909 328 44Z" fill="#ffffff"/>
<path d="M338 44C338 46.2091 336.209 48 334 48C331.791 48 330 46.2091 330 44C330 41.7909 331.791 40 334 40C336.209 40 338 41.7909 338 44Z" fill="#ffffff"/>
<path d="M348 44C348 46.2091 346.209 48 344 48C341.791 48 340 46.2091 340 44C340 41.7909 341.791 40 344 40C346.209 40 348 41.7909 348 44Z" fill="#ffffff"/>
<path d="M358 44C358 46.2091 356.209 48 354 48C351.791 48 350 46.2091 350 44C350 41.7909 351.791 40 354 40C356.209 40 358 41.7909 358 44Z" fill="#ffffff"/>
<path d="M368 44C368 46.2091 366.209 48 364 48C361.791 48 360 46.2091 360 44C360 41.7909 361.791 40 364 40C366.209 40 368 41.7909 368 44Z" fill="#ffffff"/>
<path d="M378 44C378 46.2091 376.209 48 374 48C371.791 48 370 46.2091 370 44C370 41.7909 371.791 40 374 40C376.209 40 378 41.7909 378 44Z" fill="#ffffff"/>
<path d="M388 44C388 46.2091 386.209 48 384 48C381.791 48 380 46.2091 380 44C380 41.7909 381.791 40 384 40C386.209 40 388 41.7909 388 44Z" fill="#ffffff"/>
<path d="M398 44C398 46.2091 396.209 48 394 48C391.791 48 390 46.2091 390 44C390 41.7909 391.791 40 394 40C396.209 40 398 41.7909 398 44Z" fill="#ffffff"/>
<path d="M408 44C408 46.2091 406.209 48 404 48C401.791 48 400 46.2091 400 44C400 41.7909 401.791 40 404 40C406.209 40 408 41.7909 408 44Z" fill="#ffffff"/>
<path d="M418 44C418 46.2091 416.209 48 414 48C411.791 48 410 46.2091 410 44C410 41.7909 411.791 40 414 40C416.209 40 418 41.7909 418 44Z" fill="#ffffff"/>
<path d="M428 44C428 46.2091 426.209 48 424 48C421.791 48 420 46.2091 420 44C420 41.7909 421.791 40 424 40C426.209 40 428 41.7909 428 44Z" fill="#ffffff"/>
<path d="M438 44C438 46.2091 436.209 48 434 48C431.791 48 430 46.2091 430 44C430 41.7909 431.791 40 434 40C436.209 40 438 41.7909 438 44Z" fill="#ffffff"/>
<path d="M8 54C8 56.2091 6.20914 58 4 58C1.79086 58 0 56.2091 0 54C0 51.7909 1.79086 50 4 50C6.20914 50 8 51.7909 8 54Z" fill="#ffffff"/>
<path d="M18 54C18 56.2091 16.2091 58 14 58C11.7909 58 10 56.2091 10 54C10 51.7909 11.7909 50 14 50C16.2091 50 18 51.7909 18 54Z" fill="#ffffff"/>
<path d="M28 54C28 56.2091 26.2091 58 24 58C21.7909 58 20 56.2091 20 54C20 51.7909 21.7909 50 24 50C26.2091 50 28 51.7909 28 54Z" fill="#ffffff"/>
<path d="M38 54C38 56.2091 36.2091 58 34 58C31.7909 58 30 56.2091 30 54C30 51.7909 31.7909 50 34 50C36.2091 50 38 51.7909 38 54Z" fill="#ffffff"/>
<path d="M48 54C48 56.2091 46.2091 58 44 58C41.7909 58 40 56.2091 40 54C40 51.7909 41.7909 50 44 50C46.2091 50 48 51.7909 48 54Z" fill="#ffffff"/>
<path d="M58 54C58 56.2091 56.2091 58 54 58C51.7909 58 50 56.2091 50 54C50 51.7909 51.7909 50 54 50C56.2091 50 58 51.7909 58 54Z" fill="#ffffff"/>
<path d="M68 54C68 56.2091 66.2091 58 64 58C61.7909 58 60 56.2091 60 54C60 51.7909 61.7909 50 64 50C66.2091 50 68 51.7909 68 54Z" fill="#ffffff"/>
<path d="M78 54C78 56.2091 76.2091 58 74 58C71.7909 58 70 56.2091 70 54C70 51.7909 71.7909 50 74 50C76.2091 50 78 51.7909 78 54Z" fill="#ffffff"/>
<path d="M88 54C88 56.2091 86.2091 58 84 58C81.7909 58 80 56.2091 80 54C80 51.7909 81.7909 50 84 50C86.2091 50 88 51.7909 88 54Z" fill="#ffffff"/>
<path d="M98 54C98 56.2091 96.2091 58 94 58C91.7909 58 90 56.2091 90 54C90 51.7909 91.7909 50 94 50C96.2091 50 98 51.7909 98 54Z" fill="#ffffff"/>
<path d="M108 54C108 56.2091 106.209 58 104 58C101.791 58 100 56.2091 100 54C100 51.7909 101.791 50 104 50C106.209 50 108 51.7909 108 54Z" fill="#ffffff"/>
<path d="M118 54C118 56.2091 116.209 58 114 58C111.791 58 110 56.2091 110 54C110 51.7909 111.791 50 114 50C116.209 50 118 51.7909 118 54Z" fill="#ffffff"/>
<path d="M128 54C128 56.2091 126.209 58 124 58C121.791 58 120 56.2091 120 54C120 51.7909 121.791 50 124 50C126.209 50 128 51.7909 128 54Z" fill="#ffffff"/>
<path d="M138 54C138 56.2091 136.209 58 134 58C131.791 58 130 56.2091 130 54C130 51.7909 131.791 50 134 50C136.209 50 138 51.7909 138 54Z" fill="#ffffff"/>
<path d="M148 54C148 56.2091 146.209 58 144 58C141.791 58 140 56.2091 140 54C140 51.7909 141.791 50 144 50C146.209 50 148 51.7909 148 54Z" fill="#ffffff"/>
<path d="M158 54C158 56.2091 156.209 58 154 58C151.791 58 150 56.2091 150 54C150 51.7909 151.791 50 154 50C156.209 50 158 51.7909 158 54Z" fill="#ffffff"/>
<path d="M168 54C168 56.2091 166.209 58 164 58C161.791 58 160 56.2091 160 54C160 51.7909 161.791 50 164 50C166.209 50 168 51.7909 168 54Z" fill="#ffffff"/>
<path d="M178 54C178 56.2091 176.209 58 174 58C171.791 58 170 56.2091 170 54C170 51.7909 171.791 50 174 50C176.209 50 178 51.7909 178 54Z" fill="#ffffff"/>
<path d="M188 54C188 56.2091 186.209 58 184 58C181.791 58 180 56.2091 180 54C180 51.7909 181.791 50 184 50C186.209 50 188 51.7909 188 54Z" fill="#ffffff"/>
<path d="M198 54C198 56.2091 196.209 58 194 58C191.791 58 190 56.2091 190 54C190 51.7909 191.791 50 194 50C196.209 50 198 51.7909 198 54Z" fill="#ffffff"/>
<path d="M208 54C208 56.2091 206.209 58 204 58C201.791 58 200 56.2091 200 54C200 51.7909 201.791 50 204 50C206.209 50 208 51.7909 208 54Z" fill="#ffffff"/>
<path d="M218 54C218 56.2091 216.209 58 214 58C211.791 58 210 56.2091 210 54C210 51.7909 211.791 50 214 50C216.209 50 218 51.7909 218 54Z" fill="#ffffff"/>
<path d="M228 54C228 56.2091 226.209 58 224 58C221.791 58 220 56.2091 220 54C220 51.7909 221.791 50 224 50C226.209 50 228 51.7909 228 54Z" fill="#ffffff"/>
<path d="M238 54C238 56.2091 236.209 58 234 58C231.791 58 230 56.2091 230 54C230 51.7909 231.791 50 234 50C236.209 50 238 51.7909 238 54Z" fill="#ffffff"/>
<path d="M248 54C248 56.2091 246.209 58 244 58C241.791 58 240 56.2091 240 54C240 51.7909 241.791 50 244 50C246.209 50 248 51.7909 248 54Z" fill="#ffffff"/>
<path d="M258 54C258 56.2091 256.209 58 254 58C251.791 58 250 56.2091 250 54C250 51.7909 251.791 50 254 50C256.209 50 258 51.7909 258 54Z" fill="#ffffff"/>
<path d="M268 54C268 56.2091 266.209 58 264 58C261.791 58 260 56.2091 260 54C260 51.7909 261.791 50 264 50C266.209 50 268 51.7909 268 54Z" fill="#ffffff"/>
<path d="M278 54C278 56.2091 276.209 58 274 58C271.791 58 270 56.2091 270 54C270 51.7909 271.791 50 274 50C276.209 50 278 51.7909 278 54Z" fill="#ffffff"/>
<path d="M288 54C288 56.2091 286.209 58 284 58C281.791 58 280 56.2091 280 54C280 51.7909 281.791 50 284 50C286.209 50 288 51.7909 288 54Z" fill="#ffffff"/>
<path d="M298 54C298 56.2091 296.209 58 294 58C291.791 58 290 56.2091 290 54C290 51.7909 291.791 50 294 50C296.209 50 298 51.7909 298 54Z" fill="#ffffff"/>
<path d="M308 54C308 56.2091 306.209 58 304 58C301.791 58 300 56.2091 300 54C300 51.7909 301.791 50 304 50C306.209 50 308 51.7909 308 54Z" fill="#ffffff"/>
<path d="M318 54C318 56.2091 316.209 58 314 58C311.791 58 310 56.2091 310 54C310 51.7909 311.791 50 314 50C316.209 50 318 51.7909 318 54Z" fill="#ffffff"/>
<path d="M328 54C328 56.2091 326.209 58 324 58C321.791 58 320 56.2091 320 54C320 51.7909 321.791 50 324 50C326.209 50 328 51.7909 328 54Z" fill="#ffffff"/>
<path d="M338 54C338 56.2091 336.209 58 334 58C331.791 58 330 56.2091 330 54C330 51.7909 331.791 50 334 50C336.209 50 338 51.7909 338 54Z" fill="#ffffff"/>
<path d="M348 54C348 56.2091 346.209 58 344 58C341.791 58 340 56.2091 340 54C340 51.7909 341.791 50 344 50C346.209 50 348 51.7909 348 54Z" fill="#ffffff"/>
<path d="M358 54C358 56.2091 356.209 58 354 58C351.791 58 350 56.2091 350 54C350 51.7909 351.791 50 354 50C356.209 50 358 51.7909 358 54Z" fill="#ffffff"/>
<path d="M368 54C368 56.2091 366.209 58 364 58C361.791 58 360 56.2091 360 54C360 51.7909 361.791 50 364 50C366.209 50 368 51.7909 368 54Z" fill="#ffffff"/>
<path d="M378 54C378 56.2091 376.209 58 374 58C371.791 58 370 56.2091 370 54C370 51.7909 371.791 50 374 50C376.209 50 378 51.7909 378 54Z" fill="#ffffff"/>
<path d="M388 54C388 56.2091 386.209 58 384 58C381.791 58 380 56.2091 380 54C380 51.7909 381.791 50 384 50C386.209 50 388 51.7909 388 54Z" fill="#ffffff"/>
<path d="M398 54C398 56.2091 396.209 58 394 58C391.791 58 390 56.2091 390 54C390 51.7909 391.791 50 394 50C396.209 50 398 51.7909 398 54Z" fill="#ffffff"/>
<path d="M408 54C408 56.2091 406.209 58 404 58C401.791 58 400 56.2091 400 54C400 51.7909 401.791 50 404 50C406.209 50 408 51.7909 408 54Z" fill="#ffffff"/>
<path d="M418 54C418 56.2091 416.209 58 414 58C411.791 58 410 56.2091 410 54C410 51.7909 411.791 50 414 50C416.209 50 418 51.7909 418 54Z" fill="#ffffff"/>
<path d="M428 54C428 56.2091 426.209 58 424 58C421.791 58 420 56.2091 420 54C420 51.7909 421.791 50 424 50C426.209 50 428 51.7909 428 54Z" fill="#ffffff"/>
<path d="M438 54C438 56.2091 436.209 58 434 58C431.791 58 430 56.2091 430 54C430 51.7909 431.791 50 434 50C436.209 50 438 51.7909 438 54Z" fill="#ffffff"/>
<path d="M8 64C8 66.2091 6.20914 68 4 68C1.79086 68 0 66.2091 0 64C0 61.7909 1.79086 60 4 60C6.20914 60 8 61.7909 8 64Z" fill="#ffffff"/>
<path d="M18 64C18 66.2091 16.2091 68 14 68C11.7909 68 10 66.2091 10 64C10 61.7909 11.7909 60 14 60C16.2091 60 18 61.7909 18 64Z" fill="#ffffff"/>
<path d="M28 64C28 66.2091 26.2091 68 24 68C21.7909 68 20 66.2091 20 64C20 61.7909 21.7909 60 24 60C26.2091 60 28 61.7909 28 64Z" fill="#ffffff"/>
<path d="M38 64C38 66.2091 36.2091 68 34 68C31.7909 68 30 66.2091 30 64C30 61.7909 31.7909 60 34 60C36.2091 60 38 61.7909 38 64Z" fill="#ffffff"/>
<path d="M48 64C48 66.2091 46.2091 68 44 68C41.7909 68 40 66.2091 40 64C40 61.7909 41.7909 60 44 60C46.2091 60 48 61.7909 48 64Z" fill="#ffffff"/>
<path d="M58 64C58 66.2091 56.2091 68 54 68C51.7909 68 50 66.2091 50 64C50 61.7909 51.7909 60 54 60C56.2091 60 58 61.7909 58 64Z" fill="#ffffff"/>
<path d="M68 64C68 66.2091 66.2091 68 64 68C61.7909 68 60 66.2091 60 64C60 61.7909 61.7909 60 64 60C66.2091 60 68 61.7909 68 64Z" fill="#ffffff"/>
<path d="M78 64C78 66.2091 76.2091 68 74 68C71.7909 68 70 66.2091 70 64C70 61.7909 71.7909 60 74 60C76.2091 60 78 61.7909 78 64Z" fill="#ffffff"/>
<path d="M88 64C88 66.2091 86.2091 68 84 68C81.7909 68 80 66.2091 80 64C80 61.7909 81.7909 60 84 60C86.2091 60 88 61.7909 88 64Z" fill="#ffffff"/>
<path d="M98 64C98 66.2091 96.2091 68 94 68C91.7909 68 90 66.2091 90 64C90 61.7909 91.7909 60 94 60C96.2091 60 98 61.7909 98 64Z" fill="#ffffff"/>
<path d="M108 64C108 66.2091 106.209 68 104 68C101.791 68 100 66.2091 100 64C100 61.7909 101.791 60 104 60C106.209 60 108 61.7909 108 64Z" fill="#ffffff"/>
<path d="M118 64C118 66.2091 116.209 68 114 68C111.791 68 110 66.2091 110 64C110 61.7909 111.791 60 114 60C116.209 60 118 61.7909 118 64Z" fill="#ffffff"/>
<path d="M128 64C128 66.2091 126.209 68 124 68C121.791 68 120 66.2091 120 64C120 61.7909 121.791 60 124 60C126.209 60 128 61.7909 128 64Z" fill="#ffffff"/>
<path d="M138 64C138 66.2091 136.209 68 134 68C131.791 68 130 66.2091 130 64C130 61.7909 131.791 60 134 60C136.209 60 138 61.7909 138 64Z" fill="#ffffff"/>
<path d="M148 64C148 66.2091 146.209 68 144 68C141.791 68 140 66.2091 140 64C140 61.7909 141.791 60 144 60C146.209 60 148 61.7909 148 64Z" fill="#ffffff"/>
<path d="M158 64C158 66.2091 156.209 68 154 68C151.791 68 150 66.2091 150 64C150 61.7909 151.791 60 154 60C156.209 60 158 61.7909 158 64Z" fill="#ffffff"/>
<path d="M168 64C168 66.2091 166.209 68 164 68C161.791 68 160 66.2091 160 64C160 61.7909 161.791 60 164 60C166.209 60 168 61.7909 168 64Z" fill="#ffffff"/>
<path d="M178 64C178 66.2091 176.209 68 174 68C171.791 68 170 66.2091 170 64C170 61.7909 171.791 60 174 60C176.209 60 178 61.7909 178 64Z" fill="#ffffff"/>
<path d="M188 64C188 66.2091 186.209 68 184 68C181.791 68 180 66.2091 180 64C180 61.7909 181.791 60 184 60C186.209 60 188 61.7909 188 64Z" fill="#ffffff"/>
<path d="M198 64C198 66.2091 196.209 68 194 68C191.791 68 190 66.2091 190 64C190 61.7909 191.791 60 194 60C196.209 60 198 61.7909 198 64Z" fill="#ffffff"/>
<path d="M208 64C208 66.2091 206.209 68 204 68C201.791 68 200 66.2091 200 64C200 61.7909 201.791 60 204 60C206.209 60 208 61.7909 208 64Z" fill="#ffffff"/>
<path d="M218 64C218 66.2091 216.209 68 214 68C211.791 68 210 66.2091 210 64C210 61.7909 211.791 60 214 60C216.209 60 218 61.7909 218 64Z" fill="#ffffff"/>
<path d="M228 64C228 66.2091 226.209 68 224 68C221.791 68 220 66.2091 220 64C220 61.7909 221.791 60 224 60C226.209 60 228 61.7909 228 64Z" fill="#ffffff"/>
<path d="M238 64C238 66.2091 236.209 68 234 68C231.791 68 230 66.2091 230 64C230 61.7909 231.791 60 234 60C236.209 60 238 61.7909 238 64Z" fill="#ffffff"/>
<path d="M248 64C248 66.2091 246.209 68 244 68C241.791 68 240 66.2091 240 64C240 61.7909 241.791 60 244 60C246.209 60 248 61.7909 248 64Z" fill="#ffffff"/>
<path d="M258 64C258 66.2091 256.209 68 254 68C251.791 68 250 66.2091 250 64C250 61.7909 251.791 60 254 60C256.209 60 258 61.7909 258 64Z" fill="#ffffff"/>
<path d="M268 64C268 66.2091 266.209 68 264 68C261.791 68 260 66.2091 260 64C260 61.7909 261.791 60 264 60C266.209 60 268 61.7909 268 64Z" fill="#ffffff"/>
<path d="M278 64C278 66.2091 276.209 68 274 68C271.791 68 270 66.2091 270 64C270 61.7909 271.791 60 274 60C276.209 60 278 61.7909 278 64Z" fill="#ffffff"/>
<path d="M288 64C288 66.2091 286.209 68 284 68C281.791 68 280 66.2091 280 64C280 61.7909 281.791 60 284 60C286.209 60 288 61.7909 288 64Z" fill="#ffffff"/>
<path d="M298 64C298 66.2091 296.209 68 294 68C291.791 68 290 66.2091 290 64C290 61.7909 291.791 60 294 60C296.209 60 298 61.7909 298 64Z" fill="#ffffff"/>
<path d="M308 64C308 66.2091 306.209 68 304 68C301.791 68 300 66.2091 300 64C300 61.7909 301.791 60 304 60C306.209 60 308 61.7909 308 64Z" fill="#ffffff"/>
<path d="M318 64C318 66.2091 316.209 68 314 68C311.791 68 310 66.2091 310 64C310 61.7909 311.791 60 314 60C316.209 60 318 61.7909 318 64Z" fill="#ffffff"/>
<path d="M328 64C328 66.2091 326.209 68 324 68C321.791 68 320 66.2091 320 64C320 61.7909 321.791 60 324 60C326.209 60 328 61.7909 328 64Z" fill="#ffffff"/>
<path d="M338 64C338 66.2091 336.209 68 334 68C331.791 68 330 66.2091 330 64C330 61.7909 331.791 60 334 60C336.209 60 338 61.7909 338 64Z" fill="#ffffff"/>
<path d="M348 64C348 66.2091 346.209 68 344 68C341.791 68 340 66.2091 340 64C340 61.7909 341.791 60 344 60C346.209 60 348 61.7909 348 64Z" fill="#ffffff"/>
<path d="M358 64C358 66.2091 356.209 68 354 68C351.791 68 350 66.2091 350 64C350 61.7909 351.791 60 354 60C356.209 60 358 61.7909 358 64Z" fill="#ffffff"/>
<path d="M368 64C368 66.2091 366.209 68 364 68C361.791 68 360 66.2091 360 64C360 61.7909 361.791 60 364 60C366.209 60 368 61.7909 368 64Z" fill="#ffffff"/>
<path d="M378 64C378 66.2091 376.209 68 374 68C371.791 68 370 66.2091 370 64C370 61.7909 371.791 60 374 60C376.209 60 378 61.7909 378 64Z" fill="#ffffff"/>
<path d="M388 64C388 66.2091 386.209 68 384 68C381.791 68 380 66.2091 380 64C380 61.7909 381.791 60 384 60C386.209 60 388 61.7909 388 64Z" fill="#ffffff"/>
<path d="M398 64C398 66.2091 396.209 68 394 68C391.791 68 390 66.2091 390 64C390 61.7909 391.791 60 394 60C396.209 60 398 61.7909 398 64Z" fill="#ffffff"/>
<path d="M408 64C408 66.2091 406.209 68 404 68C401.791 68 400 66.2091 400 64C400 61.7909 401.791 60 404 60C406.209 60 408 61.7909 408 64Z" fill="#ffffff"/>
<path d="M418 64C418 66.2091 416.209 68 414 68C411.791 68 410 66.2091 410 64C410 61.7909 411.791 60 414 60C416.209 60 418 61.7909 418 64Z" fill="#ffffff"/>
<path d="M428 64C428 66.2091 426.209 68 424 68C421.791 68 420 66.2091 420 64C420 61.7909 421.791 60 424 60C426.209 60 428 61.7909 428 64Z" fill="#ffffff"/>
<path d="M438 64C438 66.2091 436.209 68 434 68C431.791 68 430 66.2091 430 64C430 61.7909 431.791 60 434 60C436.209 60 438 61.7909 438 64Z" fill="#ffffff"/>
<path d="M8 74C8 76.2091 6.20914 78 4 78C1.79086 78 0 76.2091 0 74C0 71.7909 1.79086 70 4 70C6.20914 70 8 71.7909 8 74Z" fill="#ffffff"/>
<path d="M18 74C18 76.2091 16.2091 78 14 78C11.7909 78 10 76.2091 10 74C10 71.7909 11.7909 70 14 70C16.2091 70 18 71.7909 18 74Z" fill="#ffffff"/>
<path d="M28 74C28 76.2091 26.2091 78 24 78C21.7909 78 20 76.2091 20 74C20 71.7909 21.7909 70 24 70C26.2091 70 28 71.7909 28 74Z" fill="#ffffff"/>
<path d="M38 74C38 76.2091 36.2091 78 34 78C31.7909 78 30 76.2091 30 74C30 71.7909 31.7909 70 34 70C36.2091 70 38 71.7909 38 74Z" fill="#ffffff"/>
<path d="M48 74C48 76.2091 46.2091 78 44 78C41.7909 78 40 76.2091 40 74C40 71.7909 41.7909 70 44 70C46.2091 70 48 71.7909 48 74Z" fill="#ffffff"/>
<path d="M58 74C58 76.2091 56.2091 78 54 78C51.7909 78 50 76.2091 50 74C50 71.7909 51.7909 70 54 70C56.2091 70 58 71.7909 58 74Z" fill="#ffffff"/>
<path d="M68 74C68 76.2091 66.2091 78 64 78C61.7909 78 60 76.2091 60 74C60 71.7909 61.7909 70 64 70C66.2091 70 68 71.7909 68 74Z" fill="#ffffff"/>
<path d="M78 74C78 76.2091 76.2091 78 74 78C71.7909 78 70 76.2091 70 74C70 71.7909 71.7909 70 74 70C76.2091 70 78 71.7909 78 74Z" fill="#ffffff"/>
<path d="M88 74C88 76.2091 86.2091 78 84 78C81.7909 78 80 76.2091 80 74C80 71.7909 81.7909 70 84 70C86.2091 70 88 71.7909 88 74Z" fill="#ffffff"/>
<path d="M98 74C98 76.2091 96.2091 78 94 78C91.7909 78 90 76.2091 90 74C90 71.7909 91.7909 70 94 70C96.2091 70 98 71.7909 98 74Z" fill="#ffffff"/>
<path d="M108 74C108 76.2091 106.209 78 104 78C101.791 78 100 76.2091 100 74C100 71.7909 101.791 70 104 70C106.209 70 108 71.7909 108 74Z" fill="#ffffff"/>
<path d="M118 74C118 76.2091 116.209 78 114 78C111.791 78 110 76.2091 110 74C110 71.7909 111.791 70 114 70C116.209 70 118 71.7909 118 74Z" fill="#ffffff"/>
<path d="M128 74C128 76.2091 126.209 78 124 78C121.791 78 120 76.2091 120 74C120 71.7909 121.791 70 124 70C126.209 70 128 71.7909 128 74Z" fill="#ffffff"/>
<path d="M138 74C138 76.2091 136.209 78 134 78C131.791 78 130 76.2091 130 74C130 71.7909 131.791 70 134 70C136.209 70 138 71.7909 138 74Z" fill="#ffffff"/>
<path d="M148 74C148 76.2091 146.209 78 144 78C141.791 78 140 76.2091 140 74C140 71.7909 141.791 70 144 70C146.209 70 148 71.7909 148 74Z" fill="#ffffff"/>
<path d="M158 74C158 76.2091 156.209 78 154 78C151.791 78 150 76.2091 150 74C150 71.7909 151.791 70 154 70C156.209 70 158 71.7909 158 74Z" fill="#ffffff"/>
<path d="M168 74C168 76.2091 166.209 78 164 78C161.791 78 160 76.2091 160 74C160 71.7909 161.791 70 164 70C166.209 70 168 71.7909 168 74Z" fill="#ffffff"/>
<path d="M178 74C178 76.2091 176.209 78 174 78C171.791 78 170 76.2091 170 74C170 71.7909 171.791 70 174 70C176.209 70 178 71.7909 178 74Z" fill="#ffffff"/>
<path d="M188 74C188 76.2091 186.209 78 184 78C181.791 78 180 76.2091 180 74C180 71.7909 181.791 70 184 70C186.209 70 188 71.7909 188 74Z" fill="#ffffff"/>
<path d="M198 74C198 76.2091 196.209 78 194 78C191.791 78 190 76.2091 190 74C190 71.7909 191.791 70 194 70C196.209 70 198 71.7909 198 74Z" fill="#ffffff"/>
<path d="M208 74C208 76.2091 206.209 78 204 78C201.791 78 200 76.2091 200 74C200 71.7909 201.791 70 204 70C206.209 70 208 71.7909 208 74Z" fill="#ffffff"/>
<path d="M218 74C218 76.2091 216.209 78 214 78C211.791 78 210 76.2091 210 74C210 71.7909 211.791 70 214 70C216.209 70 218 71.7909 218 74Z" fill="#ffffff"/>
<path d="M228 74C228 76.2091 226.209 78 224 78C221.791 78 220 76.2091 220 74C220 71.7909 221.791 70 224 70C226.209 70 228 71.7909 228 74Z" fill="#ffffff"/>
<path d="M238 74C238 76.2091 236.209 78 234 78C231.791 78 230 76.2091 230 74C230 71.7909 231.791 70 234 70C236.209 70 238 71.7909 238 74Z" fill="#ffffff"/>
<path d="M248 74C248 76.2091 246.209 78 244 78C241.791 78 240 76.2091 240 74C240 71.7909 241.791 70 244 70C246.209 70 248 71.7909 248 74Z" fill="#ffffff"/>
<path d="M258 74C258 76.2091 256.209 78 254 78C251.791 78 250 76.2091 250 74C250 71.7909 251.791 70 254 70C256.209 70 258 71.7909 258 74Z" fill="#ffffff"/>
<path d="M268 74C268 76.2091 266.209 78 264 78C261.791 78 260 76.2091 260 74C260 71.7909 261.791 70 264 70C266.209 70 268 71.7909 268 74Z" fill="#ffffff"/>
<path d="M278 74C278 76.2091 276.209 78 274 78C271.791 78 270 76.2091 270 74C270 71.7909 271.791 70 274 70C276.209 70 278 71.7909 278 74Z" fill="#ffffff"/>
<path d="M288 74C288 76.2091 286.209 78 284 78C281.791 78 280 76.2091 280 74C280 71.7909 281.791 70 284 70C286.209 70 288 71.7909 288 74Z" fill="#ffffff"/>
<path d="M298 74C298 76.2091 296.209 78 294 78C291.791 78 290 76.2091 290 74C290 71.7909 291.791 70 294 70C296.209 70 298 71.7909 298 74Z" fill="#ffffff"/>
<path d="M308 74C308 76.2091 306.209 78 304 78C301.791 78 300 76.2091 300 74C300 71.7909 301.791 70 304 70C306.209 70 308 71.7909 308 74Z" fill="#ffffff"/>
<path d="M318 74C318 76.2091 316.209 78 314 78C311.791 78 310 76.2091 310 74C310 71.7909 311.791 70 314 70C316.209 70 318 71.7909 318 74Z" fill="#ffffff"/>
<path d="M328 74C328 76.2091 326.209 78 324 78C321.791 78 320 76.2091 320 74C320 71.7909 321.791 70 324 70C326.209 70 328 71.7909 328 74Z" fill="#ffffff"/>
<path d="M338 74C338 76.2091 336.209 78 334 78C331.791 78 330 76.2091 330 74C330 71.7909 331.791 70 334 70C336.209 70 338 71.7909 338 74Z" fill="#ffffff"/>
<path d="M348 74C348 76.2091 346.209 78 344 78C341.791 78 340 76.2091 340 74C340 71.7909 341.791 70 344 70C346.209 70 348 71.7909 348 74Z" fill="#ffffff"/>
<path d="M358 74C358 76.2091 356.209 78 354 78C351.791 78 350 76.2091 350 74C350 71.7909 351.791 70 354 70C356.209 70 358 71.7909 358 74Z" fill="#ffffff"/>
<path d="M368 74C368 76.2091 366.209 78 364 78C361.791 78 360 76.2091 360 74C360 71.7909 361.791 70 364 70C366.209 70 368 71.7909 368 74Z" fill="#ffffff"/>
<path d="M378 74C378 76.2091 376.209 78 374 78C371.791 78 370 76.2091 370 74C370 71.7909 371.791 70 374 70C376.209 70 378 71.7909 378 74Z" fill="#ffffff"/>
<path d="M388 74C388 76.2091 386.209 78 384 78C381.791 78 380 76.2091 380 74C380 71.7909 381.791 70 384 70C386.209 70 388 71.7909 388 74Z" fill="#ffffff"/>
<path d="M398 74C398 76.2091 396.209 78 394 78C391.791 78 390 76.2091 390 74C390 71.7909 391.791 70 394 70C396.209 70 398 71.7909 398 74Z" fill="#ffffff"/>
<path d="M408 74C408 76.2091 406.209 78 404 78C401.791 78 400 76.2091 400 74C400 71.7909 401.791 70 404 70C406.209 70 408 71.7909 408 74Z" fill="#ffffff"/>
<path d="M418 74C418 76.2091 416.209 78 414 78C411.791 78 410 76.2091 410 74C410 71.7909 411.791 70 414 70C416.209 70 418 71.7909 418 74Z" fill="#ffffff"/>
<path d="M428 74C428 76.2091 426.209 78 424 78C421.791 78 420 76.2091 420 74C420 71.7909 421.791 70 424 70C426.209 70 428 71.7909 428 74Z" fill="#ffffff"/>
<path d="M438 74C438 76.2091 436.209 78 434 78C431.791 78 430 76.2091 430 74C430 71.7909 431.791 70 434 70C436.209 70 438 71.7909 438 74Z" fill="#ffffff"/>
<path d="M8 84C8 86.2091 6.20914 88 4 88C1.79086 88 0 86.2091 0 84C0 81.7909 1.79086 80 4 80C6.20914 80 8 81.7909 8 84Z" fill="#ffffff"/>
<path d="M18 84C18 86.2091 16.2091 88 14 88C11.7909 88 10 86.2091 10 84C10 81.7909 11.7909 80 14 80C16.2091 80 18 81.7909 18 84Z" fill="#ffffff"/>
<path d="M28 84C28 86.2091 26.2091 88 24 88C21.7909 88 20 86.2091 20 84C20 81.7909 21.7909 80 24 80C26.2091 80 28 81.7909 28 84Z" fill="#ffffff"/>
<path d="M38 84C38 86.2091 36.2091 88 34 88C31.7909 88 30 86.2091 30 84C30 81.7909 31.7909 80 34 80C36.2091 80 38 81.7909 38 84Z" fill="#ffffff"/>
<path d="M48 84C48 86.2091 46.2091 88 44 88C41.7909 88 40 86.2091 40 84C40 81.7909 41.7909 80 44 80C46.2091 80 48 81.7909 48 84Z" fill="#ffffff"/>
<path d="M58 84C58 86.2091 56.2091 88 54 88C51.7909 88 50 86.2091 50 84C50 81.7909 51.7909 80 54 80C56.2091 80 58 81.7909 58 84Z" fill="#ffffff"/>
<path d="M68 84C68 86.2091 66.2091 88 64 88C61.7909 88 60 86.2091 60 84C60 81.7909 61.7909 80 64 80C66.2091 80 68 81.7909 68 84Z" fill="#ffffff"/>
<path d="M78 84C78 86.2091 76.2091 88 74 88C71.7909 88 70 86.2091 70 84C70 81.7909 71.7909 80 74 80C76.2091 80 78 81.7909 78 84Z" fill="#ffffff"/>
<path d="M88 84C88 86.2091 86.2091 88 84 88C81.7909 88 80 86.2091 80 84C80 81.7909 81.7909 80 84 80C86.2091 80 88 81.7909 88 84Z" fill="#ffffff"/>
<path d="M98 84C98 86.2091 96.2091 88 94 88C91.7909 88 90 86.2091 90 84C90 81.7909 91.7909 80 94 80C96.2091 80 98 81.7909 98 84Z" fill="#ffffff"/>
<path d="M108 84C108 86.2091 106.209 88 104 88C101.791 88 100 86.2091 100 84C100 81.7909 101.791 80 104 80C106.209 80 108 81.7909 108 84Z" fill="#ffffff"/>
<path d="M118 84C118 86.2091 116.209 88 114 88C111.791 88 110 86.2091 110 84C110 81.7909 111.791 80 114 80C116.209 80 118 81.7909 118 84Z" fill="#ffffff"/>
<path d="M128 84C128 86.2091 126.209 88 124 88C121.791 88 120 86.2091 120 84C120 81.7909 121.791 80 124 80C126.209 80 128 81.7909 128 84Z" fill="#ffffff"/>
<path d="M138 84C138 86.2091 136.209 88 134 88C131.791 88 130 86.2091 130 84C130 81.7909 131.791 80 134 80C136.209 80 138 81.7909 138 84Z" fill="#ffffff"/>
<path d="M148 84C148 86.2091 146.209 88 144 88C141.791 88 140 86.2091 140 84C140 81.7909 141.791 80 144 80C146.209 80 148 81.7909 148 84Z" fill="#ffffff"/>
<path d="M158 84C158 86.2091 156.209 88 154 88C151.791 88 150 86.2091 150 84C150 81.7909 151.791 80 154 80C156.209 80 158 81.7909 158 84Z" fill="#ffffff"/>
<path d="M168 84C168 86.2091 166.209 88 164 88C161.791 88 160 86.2091 160 84C160 81.7909 161.791 80 164 80C166.209 80 168 81.7909 168 84Z" fill="#ffffff"/>
<path d="M178 84C178 86.2091 176.209 88 174 88C171.791 88 170 86.2091 170 84C170 81.7909 171.791 80 174 80C176.209 80 178 81.7909 178 84Z" fill="#ffffff"/>
<path d="M188 84C188 86.2091 186.209 88 184 88C181.791 88 180 86.2091 180 84C180 81.7909 181.791 80 184 80C186.209 80 188 81.7909 188 84Z" fill="#ffffff"/>
<path d="M198 84C198 86.2091 196.209 88 194 88C191.791 88 190 86.2091 190 84C190 81.7909 191.791 80 194 80C196.209 80 198 81.7909 198 84Z" fill="#ffffff"/>
<path d="M208 84C208 86.2091 206.209 88 204 88C201.791 88 200 86.2091 200 84C200 81.7909 201.791 80 204 80C206.209 80 208 81.7909 208 84Z" fill="#ffffff"/>
<path d="M218 84C218 86.2091 216.209 88 214 88C211.791 88 210 86.2091 210 84C210 81.7909 211.791 80 214 80C216.209 80 218 81.7909 218 84Z" fill="#ffffff"/>
<path d="M228 84C228 86.2091 226.209 88 224 88C221.791 88 220 86.2091 220 84C220 81.7909 221.791 80 224 80C226.209 80 228 81.7909 228 84Z" fill="#ffffff"/>
<path d="M238 84C238 86.2091 236.209 88 234 88C231.791 88 230 86.2091 230 84C230 81.7909 231.791 80 234 80C236.209 80 238 81.7909 238 84Z" fill="#ffffff"/>
<path d="M248 84C248 86.2091 246.209 88 244 88C241.791 88 240 86.2091 240 84C240 81.7909 241.791 80 244 80C246.209 80 248 81.7909 248 84Z" fill="#ffffff"/>
<path d="M258 84C258 86.2091 256.209 88 254 88C251.791 88 250 86.2091 250 84C250 81.7909 251.791 80 254 80C256.209 80 258 81.7909 258 84Z" fill="#ffffff"/>
<path d="M268 84C268 86.2091 266.209 88 264 88C261.791 88 260 86.2091 260 84C260 81.7909 261.791 80 264 80C266.209 80 268 81.7909 268 84Z" fill="#ffffff"/>
<path d="M278 84C278 86.2091 276.209 88 274 88C271.791 88 270 86.2091 270 84C270 81.7909 271.791 80 274 80C276.209 80 278 81.7909 278 84Z" fill="#ffffff"/>
<path d="M288 84C288 86.2091 286.209 88 284 88C281.791 88 280 86.2091 280 84C280 81.7909 281.791 80 284 80C286.209 80 288 81.7909 288 84Z" fill="#ffffff"/>
<path d="M298 84C298 86.2091 296.209 88 294 88C291.791 88 290 86.2091 290 84C290 81.7909 291.791 80 294 80C296.209 80 298 81.7909 298 84Z" fill="#ffffff"/>
<path d="M308 84C308 86.2091 306.209 88 304 88C301.791 88 300 86.2091 300 84C300 81.7909 301.791 80 304 80C306.209 80 308 81.7909 308 84Z" fill="#ffffff"/>
<path d="M318 84C318 86.2091 316.209 88 314 88C311.791 88 310 86.2091 310 84C310 81.7909 311.791 80 314 80C316.209 80 318 81.7909 318 84Z" fill="#ffffff"/>
<path d="M328 84C328 86.2091 326.209 88 324 88C321.791 88 320 86.2091 320 84C320 81.7909 321.791 80 324 80C326.209 80 328 81.7909 328 84Z" fill="#ffffff"/>
<path d="M338 84C338 86.2091 336.209 88 334 88C331.791 88 330 86.2091 330 84C330 81.7909 331.791 80 334 80C336.209 80 338 81.7909 338 84Z" fill="#ffffff"/>
<path d="M348 84C348 86.2091 346.209 88 344 88C341.791 88 340 86.2091 340 84C340 81.7909 341.791 80 344 80C346.209 80 348 81.7909 348 84Z" fill="#ffffff"/>
<path d="M358 84C358 86.2091 356.209 88 354 88C351.791 88 350 86.2091 350 84C350 81.7909 351.791 80 354 80C356.209 80 358 81.7909 358 84Z" fill="#ffffff"/>
<path d="M368 84C368 86.2091 366.209 88 364 88C361.791 88 360 86.2091 360 84C360 81.7909 361.791 80 364 80C366.209 80 368 81.7909 368 84Z" fill="#ffffff"/>
<path d="M378 84C378 86.2091 376.209 88 374 88C371.791 88 370 86.2091 370 84C370 81.7909 371.791 80 374 80C376.209 80 378 81.7909 378 84Z" fill="#ffffff"/>
<path d="M388 84C388 86.2091 386.209 88 384 88C381.791 88 380 86.2091 380 84C380 81.7909 381.791 80 384 80C386.209 80 388 81.7909 388 84Z" fill="#ffffff"/>
<path d="M398 84C398 86.2091 396.209 88 394 88C391.791 88 390 86.2091 390 84C390 81.7909 391.791 80 394 80C396.209 80 398 81.7909 398 84Z" fill="#ffffff"/>
<path d="M408 84C408 86.2091 406.209 88 404 88C401.791 88 400 86.2091 400 84C400 81.7909 401.791 80 404 80C406.209 80 408 81.7909 408 84Z" fill="#ffffff"/>
<path d="M418 84C418 86.2091 416.209 88 414 88C411.791 88 410 86.2091 410 84C410 81.7909 411.791 80 414 80C416.209 80 418 81.7909 418 84Z" fill="#ffffff"/>
<path d="M428 84C428 86.2091 426.209 88 424 88C421.791 88 420 86.2091 420 84C420 81.7909 421.791 80 424 80C426.209 80 428 81.7909 428 84Z" fill="#ffffff"/>
<path d="M438 84C438 86.2091 436.209 88 434 88C431.791 88 430 86.2091 430 84C430 81.7909 431.791 80 434 80C436.209 80 438 81.7909 438 84Z" fill="#ffffff"/>
<path d="M8 94C8 96.2091 6.20914 98 4 98C1.79086 98 0 96.2091 0 94C0 91.7909 1.79086 90 4 90C6.20914 90 8 91.7909 8 94Z" fill="#ffffff"/>
<path d="M18 94C18 96.2091 16.2091 98 14 98C11.7909 98 10 96.2091 10 94C10 91.7909 11.7909 90 14 90C16.2091 90 18 91.7909 18 94Z" fill="#ffffff"/>
<path d="M28 94C28 96.2091 26.2091 98 24 98C21.7909 98 20 96.2091 20 94C20 91.7909 21.7909 90 24 90C26.2091 90 28 91.7909 28 94Z" fill="#ffffff"/>
<path d="M38 94C38 96.2091 36.2091 98 34 98C31.7909 98 30 96.2091 30 94C30 91.7909 31.7909 90 34 90C36.2091 90 38 91.7909 38 94Z" fill="#ffffff"/>
<path d="M48 94C48 96.2091 46.2091 98 44 98C41.7909 98 40 96.2091 40 94C40 91.7909 41.7909 90 44 90C46.2091 90 48 91.7909 48 94Z" fill="#ffffff"/>
<path d="M58 94C58 96.2091 56.2091 98 54 98C51.7909 98 50 96.2091 50 94C50 91.7909 51.7909 90 54 90C56.2091 90 58 91.7909 58 94Z" fill="#ffffff"/>
<path d="M68 94C68 96.2091 66.2091 98 64 98C61.7909 98 60 96.2091 60 94C60 91.7909 61.7909 90 64 90C66.2091 90 68 91.7909 68 94Z" fill="#ffffff"/>
<path d="M78 94C78 96.2091 76.2091 98 74 98C71.7909 98 70 96.2091 70 94C70 91.7909 71.7909 90 74 90C76.2091 90 78 91.7909 78 94Z" fill="#ffffff"/>
<path d="M88 94C88 96.2091 86.2091 98 84 98C81.7909 98 80 96.2091 80 94C80 91.7909 81.7909 90 84 90C86.2091 90 88 91.7909 88 94Z" fill="#ffffff"/>
<path d="M98 94C98 96.2091 96.2091 98 94 98C91.7909 98 90 96.2091 90 94C90 91.7909 91.7909 90 94 90C96.2091 90 98 91.7909 98 94Z" fill="#ffffff"/>
<path d="M108 94C108 96.2091 106.209 98 104 98C101.791 98 100 96.2091 100 94C100 91.7909 101.791 90 104 90C106.209 90 108 91.7909 108 94Z" fill="#ffffff"/>
<path d="M118 94C118 96.2091 116.209 98 114 98C111.791 98 110 96.2091 110 94C110 91.7909 111.791 90 114 90C116.209 90 118 91.7909 118 94Z" fill="#ffffff"/>
<path d="M128 94C128 96.2091 126.209 98 124 98C121.791 98 120 96.2091 120 94C120 91.7909 121.791 90 124 90C126.209 90 128 91.7909 128 94Z" fill="#ffffff"/>
<path d="M138 94C138 96.2091 136.209 98 134 98C131.791 98 130 96.2091 130 94C130 91.7909 131.791 90 134 90C136.209 90 138 91.7909 138 94Z" fill="#ffffff"/>
<path d="M148 94C148 96.2091 146.209 98 144 98C141.791 98 140 96.2091 140 94C140 91.7909 141.791 90 144 90C146.209 90 148 91.7909 148 94Z" fill="#ffffff"/>
<path d="M158 94C158 96.2091 156.209 98 154 98C151.791 98 150 96.2091 150 94C150 91.7909 151.791 90 154 90C156.209 90 158 91.7909 158 94Z" fill="#ffffff"/>
<path d="M168 94C168 96.2091 166.209 98 164 98C161.791 98 160 96.2091 160 94C160 91.7909 161.791 90 164 90C166.209 90 168 91.7909 168 94Z" fill="#ffffff"/>
<path d="M178 94C178 96.2091 176.209 98 174 98C171.791 98 170 96.2091 170 94C170 91.7909 171.791 90 174 90C176.209 90 178 91.7909 178 94Z" fill="#ffffff"/>
<path d="M188 94C188 96.2091 186.209 98 184 98C181.791 98 180 96.2091 180 94C180 91.7909 181.791 90 184 90C186.209 90 188 91.7909 188 94Z" fill="#ffffff"/>
<path d="M198 94C198 96.2091 196.209 98 194 98C191.791 98 190 96.2091 190 94C190 91.7909 191.791 90 194 90C196.209 90 198 91.7909 198 94Z" fill="#ffffff"/>
<path d="M208 94C208 96.2091 206.209 98 204 98C201.791 98 200 96.2091 200 94C200 91.7909 201.791 90 204 90C206.209 90 208 91.7909 208 94Z" fill="#ffffff"/>
<path d="M218 94C218 96.2091 216.209 98 214 98C211.791 98 210 96.2091 210 94C210 91.7909 211.791 90 214 90C216.209 90 218 91.7909 218 94Z" fill="#ffffff"/>
<path d="M228 94C228 96.2091 226.209 98 224 98C221.791 98 220 96.2091 220 94C220 91.7909 221.791 90 224 90C226.209 90 228 91.7909 228 94Z" fill="#ffffff"/>
<path d="M238 94C238 96.2091 236.209 98 234 98C231.791 98 230 96.2091 230 94C230 91.7909 231.791 90 234 90C236.209 90 238 91.7909 238 94Z" fill="#ffffff"/>
<path d="M248 94C248 96.2091 246.209 98 244 98C241.791 98 240 96.2091 240 94C240 91.7909 241.791 90 244 90C246.209 90 248 91.7909 248 94Z" fill="#ffffff"/>
<path d="M258 94C258 96.2091 256.209 98 254 98C251.791 98 250 96.2091 250 94C250 91.7909 251.791 90 254 90C256.209 90 258 91.7909 258 94Z" fill="#ffffff"/>
<path d="M268 94C268 96.2091 266.209 98 264 98C261.791 98 260 96.2091 260 94C260 91.7909 261.791 90 264 90C266.209 90 268 91.7909 268 94Z" fill="#ffffff"/>
<path d="M278 94C278 96.2091 276.209 98 274 98C271.791 98 270 96.2091 270 94C270 91.7909 271.791 90 274 90C276.209 90 278 91.7909 278 94Z" fill="#ffffff"/>
<path d="M288 94C288 96.2091 286.209 98 284 98C281.791 98 280 96.2091 280 94C280 91.7909 281.791 90 284 90C286.209 90 288 91.7909 288 94Z" fill="#ffffff"/>
<path d="M298 94C298 96.2091 296.209 98 294 98C291.791 98 290 96.2091 290 94C290 91.7909 291.791 90 294 90C296.209 90 298 91.7909 298 94Z" fill="#ffffff"/>
<path d="M308 94C308 96.2091 306.209 98 304 98C301.791 98 300 96.2091 300 94C300 91.7909 301.791 90 304 90C306.209 90 308 91.7909 308 94Z" fill="#ffffff"/>
<path d="M318 94C318 96.2091 316.209 98 314 98C311.791 98 310 96.2091 310 94C310 91.7909 311.791 90 314 90C316.209 90 318 91.7909 318 94Z" fill="#ffffff"/>
<path d="M328 94C328 96.2091 326.209 98 324 98C321.791 98 320 96.2091 320 94C320 91.7909 321.791 90 324 90C326.209 90 328 91.7909 328 94Z" fill="#ffffff"/>
<path d="M338 94C338 96.2091 336.209 98 334 98C331.791 98 330 96.2091 330 94C330 91.7909 331.791 90 334 90C336.209 90 338 91.7909 338 94Z" fill="#ffffff"/>
<path d="M348 94C348 96.2091 346.209 98 344 98C341.791 98 340 96.2091 340 94C340 91.7909 341.791 90 344 90C346.209 90 348 91.7909 348 94Z" fill="#ffffff"/>
<path d="M358 94C358 96.2091 356.209 98 354 98C351.791 98 350 96.2091 350 94C350 91.7909 351.791 90 354 90C356.209 90 358 91.7909 358 94Z" fill="#ffffff"/>
<path d="M368 94C368 96.2091 366.209 98 364 98C361.791 98 360 96.2091 360 94C360 91.7909 361.791 90 364 90C366.209 90 368 91.7909 368 94Z" fill="#ffffff"/>
<path d="M378 94C378 96.2091 376.209 98 374 98C371.791 98 370 96.2091 370 94C370 91.7909 371.791 90 374 90C376.209 90 378 91.7909 378 94Z" fill="#ffffff"/>
<path d="M388 94C388 96.2091 386.209 98 384 98C381.791 98 380 96.2091 380 94C380 91.7909 381.791 90 384 90C386.209 90 388 91.7909 388 94Z" fill="#ffffff"/>
<path d="M398 94C398 96.2091 396.209 98 394 98C391.791 98 390 96.2091 390 94C390 91.7909 391.791 90 394 90C396.209 90 398 91.7909 398 94Z" fill="#ffffff"/>
<path d="M408 94C408 96.2091 406.209 98 404 98C401.791 98 400 96.2091 400 94C400 91.7909 401.791 90 404 90C406.209 90 408 91.7909 408 94Z" fill="#ffffff"/>
<path d="M418 94C418 96.2091 416.209 98 414 98C411.791 98 410 96.2091 410 94C410 91.7909 411.791 90 414 90C416.209 90 418 91.7909 418 94Z" fill="#ffffff"/>
<path d="M428 94C428 96.2091 426.209 98 424 98C421.791 98 420 96.2091 420 94C420 91.7909 421.791 90 424 90C426.209 90 428 91.7909 428 94Z" fill="#ffffff"/>
<path d="M438 94C438 96.2091 436.209 98 434 98C431.791 98 430 96.2091 430 94C430 91.7909 431.791 90 434 90C436.209 90 438 91.7909 438 94Z" fill="#ffffff"/>
<path d="M8 104C8 106.209 6.20914 108 4 108C1.79086 108 0 106.209 0 104C0 101.791 1.79086 100 4 100C6.20914 100 8 101.791 8 104Z" fill="#ffffff"/>
<path d="M18 104C18 106.209 16.2091 108 14 108C11.7909 108 10 106.209 10 104C10 101.791 11.7909 100 14 100C16.2091 100 18 101.791 18 104Z" fill="#ffffff"/>
<path d="M28 104C28 106.209 26.2091 108 24 108C21.7909 108 20 106.209 20 104C20 101.791 21.7909 100 24 100C26.2091 100 28 101.791 28 104Z" fill="#ffffff"/>
<path d="M38 104C38 106.209 36.2091 108 34 108C31.7909 108 30 106.209 30 104C30 101.791 31.7909 100 34 100C36.2091 100 38 101.791 38 104Z" fill="#ffffff"/>
<path d="M48 104C48 106.209 46.2091 108 44 108C41.7909 108 40 106.209 40 104C40 101.791 41.7909 100 44 100C46.2091 100 48 101.791 48 104Z" fill="#ffffff"/>
<path d="M58 104C58 106.209 56.2091 108 54 108C51.7909 108 50 106.209 50 104C50 101.791 51.7909 100 54 100C56.2091 100 58 101.791 58 104Z" fill="#ffffff"/>
<path d="M68 104C68 106.209 66.2091 108 64 108C61.7909 108 60 106.209 60 104C60 101.791 61.7909 100 64 100C66.2091 100 68 101.791 68 104Z" fill="#ffffff"/>
<path d="M78 104C78 106.209 76.2091 108 74 108C71.7909 108 70 106.209 70 104C70 101.791 71.7909 100 74 100C76.2091 100 78 101.791 78 104Z" fill="#ffffff"/>
<path d="M88 104C88 106.209 86.2091 108 84 108C81.7909 108 80 106.209 80 104C80 101.791 81.7909 100 84 100C86.2091 100 88 101.791 88 104Z" fill="#ffffff"/>
<path d="M98 104C98 106.209 96.2091 108 94 108C91.7909 108 90 106.209 90 104C90 101.791 91.7909 100 94 100C96.2091 100 98 101.791 98 104Z" fill="#ffffff"/>
<path d="M108 104C108 106.209 106.209 108 104 108C101.791 108 100 106.209 100 104C100 101.791 101.791 100 104 100C106.209 100 108 101.791 108 104Z" fill="#ffffff"/>
<path d="M118 104C118 106.209 116.209 108 114 108C111.791 108 110 106.209 110 104C110 101.791 111.791 100 114 100C116.209 100 118 101.791 118 104Z" fill="#ffffff"/>
<path d="M128 104C128 106.209 126.209 108 124 108C121.791 108 120 106.209 120 104C120 101.791 121.791 100 124 100C126.209 100 128 101.791 128 104Z" fill="#ffffff"/>
<path d="M138 104C138 106.209 136.209 108 134 108C131.791 108 130 106.209 130 104C130 101.791 131.791 100 134 100C136.209 100 138 101.791 138 104Z" fill="#ffffff"/>
<path d="M148 104C148 106.209 146.209 108 144 108C141.791 108 140 106.209 140 104C140 101.791 141.791 100 144 100C146.209 100 148 101.791 148 104Z" fill="#ffffff"/>
<path d="M158 104C158 106.209 156.209 108 154 108C151.791 108 150 106.209 150 104C150 101.791 151.791 100 154 100C156.209 100 158 101.791 158 104Z" fill="#ffffff"/>
<path d="M168 104C168 106.209 166.209 108 164 108C161.791 108 160 106.209 160 104C160 101.791 161.791 100 164 100C166.209 100 168 101.791 168 104Z" fill="#ffffff"/>
<path d="M178 104C178 106.209 176.209 108 174 108C171.791 108 170 106.209 170 104C170 101.791 171.791 100 174 100C176.209 100 178 101.791 178 104Z" fill="#ffffff"/>
<path d="M188 104C188 106.209 186.209 108 184 108C181.791 108 180 106.209 180 104C180 101.791 181.791 100 184 100C186.209 100 188 101.791 188 104Z" fill="#ffffff"/>
<path d="M198 104C198 106.209 196.209 108 194 108C191.791 108 190 106.209 190 104C190 101.791 191.791 100 194 100C196.209 100 198 101.791 198 104Z" fill="#ffffff"/>
<path d="M208 104C208 106.209 206.209 108 204 108C201.791 108 200 106.209 200 104C200 101.791 201.791 100 204 100C206.209 100 208 101.791 208 104Z" fill="#ffffff"/>
<path d="M218 104C218 106.209 216.209 108 214 108C211.791 108 210 106.209 210 104C210 101.791 211.791 100 214 100C216.209 100 218 101.791 218 104Z" fill="#ffffff"/>
<path d="M228 104C228 106.209 226.209 108 224 108C221.791 108 220 106.209 220 104C220 101.791 221.791 100 224 100C226.209 100 228 101.791 228 104Z" fill="#ffffff"/>
<path d="M238 104C238 106.209 236.209 108 234 108C231.791 108 230 106.209 230 104C230 101.791 231.791 100 234 100C236.209 100 238 101.791 238 104Z" fill="#ffffff"/>
<path d="M248 104C248 106.209 246.209 108 244 108C241.791 108 240 106.209 240 104C240 101.791 241.791 100 244 100C246.209 100 248 101.791 248 104Z" fill="#ffffff"/>
<path d="M258 104C258 106.209 256.209 108 254 108C251.791 108 250 106.209 250 104C250 101.791 251.791 100 254 100C256.209 100 258 101.791 258 104Z" fill="#ffffff"/>
<path d="M268 104C268 106.209 266.209 108 264 108C261.791 108 260 106.209 260 104C260 101.791 261.791 100 264 100C266.209 100 268 101.791 268 104Z" fill="#ffffff"/>
<path d="M278 104C278 106.209 276.209 108 274 108C271.791 108 270 106.209 270 104C270 101.791 271.791 100 274 100C276.209 100 278 101.791 278 104Z" fill="#ffffff"/>
<path d="M288 104C288 106.209 286.209 108 284 108C281.791 108 280 106.209 280 104C280 101.791 281.791 100 284 100C286.209 100 288 101.791 288 104Z" fill="#ffffff"/>
<path d="M298 104C298 106.209 296.209 108 294 108C291.791 108 290 106.209 290 104C290 101.791 291.791 100 294 100C296.209 100 298 101.791 298 104Z" fill="#ffffff"/>
<path d="M308 104C308 106.209 306.209 108 304 108C301.791 108 300 106.209 300 104C300 101.791 301.791 100 304 100C306.209 100 308 101.791 308 104Z" fill="#ffffff"/>
<path d="M318 104C318 106.209 316.209 108 314 108C311.791 108 310 106.209 310 104C310 101.791 311.791 100 314 100C316.209 100 318 101.791 318 104Z" fill="#ffffff"/>
<path d="M328 104C328 106.209 326.209 108 324 108C321.791 108 320 106.209 320 104C320 101.791 321.791 100 324 100C326.209 100 328 101.791 328 104Z" fill="#ffffff"/>
<path d="M338 104C338 106.209 336.209 108 334 108C331.791 108 330 106.209 330 104C330 101.791 331.791 100 334 100C336.209 100 338 101.791 338 104Z" fill="#ffffff"/>
<path d="M348 104C348 106.209 346.209 108 344 108C341.791 108 340 106.209 340 104C340 101.791 341.791 100 344 100C346.209 100 348 101.791 348 104Z" fill="#ffffff"/>
<path d="M358 104C358 106.209 356.209 108 354 108C351.791 108 350 106.209 350 104C350 101.791 351.791 100 354 100C356.209 100 358 101.791 358 104Z" fill="#ffffff"/>
<path d="M368 104C368 106.209 366.209 108 364 108C361.791 108 360 106.209 360 104C360 101.791 361.791 100 364 100C366.209 100 368 101.791 368 104Z" fill="#ffffff"/>
<path d="M378 104C378 106.209 376.209 108 374 108C371.791 108 370 106.209 370 104C370 101.791 371.791 100 374 100C376.209 100 378 101.791 378 104Z" fill="#ffffff"/>
<path d="M388 104C388 106.209 386.209 108 384 108C381.791 108 380 106.209 380 104C380 101.791 381.791 100 384 100C386.209 100 388 101.791 388 104Z" fill="#ffffff"/>
<path d="M398 104C398 106.209 396.209 108 394 108C391.791 108 390 106.209 390 104C390 101.791 391.791 100 394 100C396.209 100 398 101.791 398 104Z" fill="#ffffff"/>
<path d="M408 104C408 106.209 406.209 108 404 108C401.791 108 400 106.209 400 104C400 101.791 401.791 100 404 100C406.209 100 408 101.791 408 104Z" fill="#ffffff"/>
<path d="M418 104C418 106.209 416.209 108 414 108C411.791 108 410 106.209 410 104C410 101.791 411.791 100 414 100C416.209 100 418 101.791 418 104Z" fill="#ffffff"/>
<path d="M428 104C428 106.209 426.209 108 424 108C421.791 108 420 106.209 420 104C420 101.791 421.791 100 424 100C426.209 100 428 101.791 428 104Z" fill="#ffffff"/>
<path d="M438 104C438 106.209 436.209 108 434 108C431.791 108 430 106.209 430 104C430 101.791 431.791 100 434 100C436.209 100 438 101.791 438 104Z" fill="#ffffff"/>
</svg>