<svg width="742" height="774" viewBox="0 0 742 774" fill="none" xmlns="http://www.w3.org/2000/svg">
<g clip-path="url(#clip0_206_45)">
<path d="M371.216 82L561.5 276L542.5 486.5L371.216 449L98.5 544.5L129 250.5L371.216 82Z" fill="#FEDCAF"/>
<path fill-rule="evenodd" clip-rule="evenodd" d="M351.432 52.8283C362.479 46.3906 376.134 46.3906 387.181 52.8283L518.14 129.147L518.165 129.161L649.738 204.416C660.837 210.764 667.665 222.59 667.613 235.375L666.999 386.949V386.977L667.613 538.55C667.665 551.336 660.837 563.162 649.738 569.51L518.165 644.765L518.14 644.779L387.181 721.097C376.134 727.535 362.479 727.535 351.432 721.097L220.473 644.779L220.448 644.765L88.8746 569.51C77.7761 563.162 70.9485 551.336 71.0003 538.55L71.6144 386.977V386.949L71.0003 235.375C70.9485 222.59 77.7761 210.764 88.8746 204.416L220.448 129.161L220.473 129.147L351.432 52.8283ZM369.207 55.0002C364.282 55.0174 359.361 56.3094 354.957 58.8762L223.973 135.209L223.961 135.216L223.948 135.223L92.3501 210.492C87.7509 213.123 84.0652 216.925 81.5811 221.4L132.518 250.44C135.356 245.468 139.501 241.244 144.646 238.302L249.011 178.609L249.015 178.607L352.893 118.07C357.935 115.132 363.569 113.654 369.207 113.636V55.0002ZM370.407 55.0212V113.655C375.709 113.833 380.977 115.305 385.722 118.07L489.599 178.607L489.604 178.609L593.969 238.302C598.543 240.918 602.327 244.548 605.105 248.816L655.765 219.33C653.36 215.752 650.135 212.707 646.263 210.492L514.665 135.223L514.653 135.216L514.64 135.209L383.657 58.8762C379.55 56.4832 374.995 55.1982 370.407 55.0212ZM369.207 114.836C363.778 114.854 358.353 116.277 353.497 119.107L249.615 179.646L249.611 179.648L145.242 239.343C140.287 242.177 136.294 246.246 133.561 251.035L200.447 289.168C203.278 284.355 207.345 280.267 212.362 277.397L282.789 237.115L282.794 237.113L352.892 196.262C357.935 193.323 363.569 191.845 369.207 191.828V114.836ZM370.407 191.846V114.856C375.5 115.034 380.56 116.451 385.117 119.107L489 179.646L489.004 179.648L593.373 239.343C597.761 241.853 601.394 245.331 604.067 249.42L537.537 288.143C534.747 283.775 530.908 280.061 526.251 277.397L455.824 237.115L455.82 237.113L385.721 196.262C380.977 193.497 375.709 192.025 370.407 191.846ZM369.207 193.028C363.778 193.045 358.352 194.469 353.497 197.298L283.394 238.152L283.389 238.154L212.958 278.439C208.13 281.2 204.216 285.133 201.49 289.762L268.293 327.848C271.111 323.216 275.087 319.281 279.958 316.494L316.448 295.623L316.453 295.621L352.772 274.455C357.851 271.496 363.529 270.018 369.207 270.021V193.028ZM370.407 270.044V193.047C375.5 193.225 380.559 194.643 385.117 197.298L455.22 238.152L455.224 238.154L525.656 278.439C530.126 280.996 533.813 284.558 536.499 288.747L469.879 327.523C467.075 323.032 463.172 319.215 458.415 316.494L421.925 295.623L421.921 295.621L385.601 274.455C380.892 271.711 375.668 270.241 370.407 270.044ZM369.207 271.221C363.738 271.218 358.268 272.641 353.377 275.492L317.053 296.66L317.048 296.663L280.554 317.536C275.872 320.214 272.049 323.994 269.336 328.443L369.207 385.381V271.221ZM370.407 385.419V271.245C375.459 271.441 380.475 272.857 384.997 275.492L421.321 296.66L421.325 296.663L457.819 317.536C462.39 320.15 466.142 323.815 468.842 328.127L370.407 385.419ZM369.207 387.506L269.404 445.595C272.113 449.996 275.911 453.736 280.554 456.392L317.048 477.265L317.053 477.267L353.377 498.436C358.268 501.286 363.738 502.71 369.207 502.706V387.506ZM370.407 502.683V387.446L469.821 444.124C467.083 449.163 462.972 453.445 457.819 456.392L421.325 477.265L421.321 477.267L384.997 498.436C380.475 501.071 375.459 502.486 370.407 502.683ZM369.207 503.906C363.529 503.91 357.851 502.432 352.772 499.472L316.453 478.307L316.448 478.304L279.958 457.433C275.129 454.671 271.18 450.779 268.367 446.199L201.921 484.873C204.622 489.195 208.379 492.868 212.958 495.487L283.389 535.771L283.394 535.773L353.497 576.627C358.352 579.456 363.778 580.88 369.207 580.897V503.906ZM370.407 580.878V503.883C375.668 503.687 380.892 502.216 385.601 499.472L421.921 478.307L421.925 478.304L458.415 457.433C463.757 454.378 468.021 449.94 470.864 444.718L537.83 482.897C535.094 488.075 530.917 492.477 525.656 495.487L455.224 535.771L455.22 535.773L385.117 576.627C380.559 579.283 375.5 580.7 370.407 580.878ZM369.207 582.097C363.569 582.08 357.935 580.602 352.892 577.664L282.794 536.812L282.789 536.81L212.362 496.528C207.597 493.803 203.689 489.978 200.883 485.477L134.351 524.201C137.04 528.423 140.745 532.011 145.242 534.583L249.611 594.279L249.615 594.281L353.497 654.82C358.353 657.649 363.778 659.073 369.207 659.09V582.097ZM370.407 659.071V582.079C375.709 581.9 380.977 580.428 385.721 577.664L455.82 536.812L455.824 536.81L526.251 496.528C531.703 493.41 536.032 488.853 538.873 483.492L605.744 521.616C603.013 526.958 598.762 531.501 593.373 534.584L489.004 594.279L489 594.281L385.117 654.82C380.56 657.476 375.5 658.893 370.407 659.071ZM369.207 660.29C363.569 660.273 357.935 658.795 352.893 655.857L249.015 595.32L249.011 595.318L144.646 535.625C139.963 532.946 136.107 529.206 133.313 524.805L82.6483 554.294C85.0735 558.002 88.3696 561.157 92.35 563.433L223.948 638.702L223.961 638.709L223.973 638.717L354.957 715.049C359.361 717.616 364.282 718.908 369.207 718.925V660.29ZM370.407 718.904V660.272C375.709 660.093 380.977 658.621 385.722 655.857L489.599 595.32L489.604 595.318L593.969 535.625C599.548 532.434 603.951 527.736 606.787 522.211L657.704 551.239C655.236 556.272 651.297 560.554 646.263 563.433L514.665 638.702L514.653 638.709L514.64 638.717L383.657 715.049C379.55 717.442 374.995 718.727 370.407 718.904ZM604.704 250.438L538.165 289.166C541.085 294.13 542.69 299.865 542.666 305.827L542.337 386.96V386.965L542.666 468.098C542.686 473.145 541.539 478.028 539.416 482.42L606.27 520.535C608.176 516.425 609.202 511.885 609.183 507.2L608.696 386.966V386.961L609.183 266.727C609.207 260.888 607.608 255.274 604.704 250.438ZM537.128 289.77L470.496 328.552C473.31 333.449 474.853 339.078 474.829 344.925L474.659 386.961V386.966L474.829 429.003C474.85 434.176 473.645 439.177 471.418 443.653L538.371 481.824C540.393 477.613 541.485 472.936 541.466 468.103L541.137 386.965V386.96L541.466 305.822C541.489 300.078 539.942 294.553 537.128 289.77ZM469.459 329.156L371.052 386.432L470.374 443.058C472.499 438.762 473.649 433.967 473.629 429.008L473.459 386.966V386.961L473.629 344.92C473.652 339.29 472.167 333.871 469.459 329.156ZM268.731 329.479L368.648 386.443L268.795 444.561C266.162 439.895 264.722 434.554 264.744 429.008L264.914 386.966V386.961L264.744 344.92C264.722 339.419 266.139 334.118 268.731 329.479ZM263.544 429.003C263.521 434.766 265.02 440.317 267.757 445.165L201.304 483.843C198.605 479.133 197.125 473.723 197.148 468.103L197.476 386.965V386.96L197.148 305.822C197.126 300.489 198.458 295.344 200.901 290.808L267.689 328.885C264.995 333.703 263.521 339.21 263.544 344.924L263.714 386.961V386.966L263.544 429.003ZM195.948 468.098C195.924 473.936 197.462 479.555 200.267 484.447L133.725 523.177C130.939 518.412 129.408 512.914 129.432 507.2L129.919 386.966V386.961L129.432 266.727C129.411 261.54 130.67 256.532 132.986 252.088L199.858 290.213C197.313 294.929 195.925 300.28 195.948 305.827L196.276 386.96V386.965L195.948 468.098ZM128.232 507.195C128.208 513.127 129.796 518.834 132.688 523.78L82.0126 553.275C79.4106 548.906 77.9789 543.843 78.0002 538.579L78.6143 386.977L78.6144 386.963L78.6143 386.949L78.0002 235.347C77.9818 230.795 79.0495 226.395 81.0207 222.462L131.943 251.494C129.524 256.117 128.21 261.331 128.232 266.732L128.719 386.961V386.966L128.232 507.195ZM656.414 220.341L605.741 249.834C608.751 254.852 610.407 260.675 610.383 266.732L609.896 386.961V386.966L610.383 507.195C610.403 512.094 609.323 516.84 607.316 521.131L658.211 550.147C659.786 546.56 660.629 542.629 660.613 538.579L659.999 386.977V386.963V386.949L660.613 235.347C660.635 229.957 659.134 224.78 656.414 220.341Z" fill="#F8A11F"/>
</g>
<path d="M326.219 25V6.09091H339.514V10.2273H331.352V13.4773H338.702V17.6136H331.352V25H326.219ZM346.573 6.09091V25H341.476V6.09091H346.573ZM358.366 18.7955V10.8182H363.462V25H358.624V22.304H358.476C358.169 23.2088 357.63 23.9167 356.861 24.4276C356.091 24.9323 355.177 25.1847 354.118 25.1847C353.127 25.1847 352.26 24.9569 351.515 24.5014C350.776 24.0459 350.201 23.4181 349.788 22.6179C349.382 21.8177 349.176 20.9006 349.17 19.8665V10.8182H354.266V18.7955C354.272 19.4972 354.451 20.0481 354.802 20.4482C355.159 20.8482 355.657 21.0483 356.297 21.0483C356.722 21.0483 357.088 20.959 357.396 20.7805C357.71 20.5959 357.95 20.3374 358.116 20.005C358.289 19.6664 358.372 19.2633 358.366 18.7955ZM374.512 10.8182V14.5114H365.168V10.8182H374.512ZM366.978 7.42045H372.074V20.4389C372.074 20.6359 372.108 20.8021 372.176 20.9375C372.243 21.0668 372.348 21.1652 372.49 21.233C372.631 21.2945 372.813 21.3253 373.034 21.3253C373.188 21.3253 373.367 21.3068 373.57 21.2699C373.779 21.233 373.933 21.2022 374.032 21.1776L374.77 24.7599C374.542 24.8277 374.216 24.9107 373.792 25.0092C373.373 25.1077 372.874 25.1723 372.296 25.2031C371.126 25.2647 370.145 25.1446 369.35 24.843C368.556 24.5353 367.959 24.0521 367.559 23.3935C367.159 22.7348 366.965 21.91 366.978 20.919V7.42045ZM385.049 10.8182V14.5114H375.705V10.8182H385.049ZM377.515 7.42045H382.611V20.4389C382.611 20.6359 382.645 20.8021 382.713 20.9375C382.781 21.0668 382.885 21.1652 383.027 21.233C383.168 21.2945 383.35 21.3253 383.572 21.3253C383.725 21.3253 383.904 21.3068 384.107 21.2699C384.316 21.233 384.47 21.2022 384.569 21.1776L385.307 24.7599C385.08 24.8277 384.753 24.9107 384.329 25.0092C383.91 25.1077 383.412 25.1723 382.833 25.2031C381.663 25.2647 380.682 25.1446 379.888 24.843C379.094 24.5353 378.497 24.0521 378.096 23.3935C377.696 22.7348 377.502 21.91 377.515 20.919V7.42045ZM393.772 25.2585C392.257 25.2585 390.953 24.9692 389.857 24.3906C388.767 23.8059 387.927 22.9687 387.336 21.8793C386.752 20.7836 386.459 19.4725 386.459 17.946C386.459 16.4811 386.755 15.2008 387.346 14.1051C387.936 13.0095 388.77 12.157 389.848 11.5476C390.925 10.9382 392.196 10.6335 393.661 10.6335C394.732 10.6335 395.701 10.7997 396.569 11.1321C397.437 11.4645 398.179 11.9477 398.794 12.5817C399.41 13.2095 399.884 13.9728 400.216 14.8714C400.549 15.7701 400.715 16.7827 400.715 17.9091V19.0909H388.047V16.2841H396.025C396.018 15.8778 395.914 15.5208 395.711 15.2131C395.514 14.8991 395.246 14.656 394.907 14.4837C394.575 14.3052 394.196 14.2159 393.772 14.2159C393.359 14.2159 392.981 14.3052 392.636 14.4837C392.291 14.656 392.014 14.8961 391.805 15.2038C391.602 15.5116 391.494 15.8717 391.482 16.2841V19.3125C391.482 19.768 391.577 20.1742 391.768 20.5312C391.959 20.8883 392.233 21.1683 392.59 21.3714C392.947 21.5746 393.378 21.6761 393.882 21.6761C394.233 21.6761 394.553 21.6269 394.843 21.5284C395.138 21.4299 395.391 21.2884 395.6 21.1037C395.809 20.9129 395.963 20.6851 396.061 20.4205H400.715C400.555 21.4053 400.176 22.2609 399.579 22.9872C398.982 23.7074 398.191 24.2675 397.206 24.6676C396.228 25.0616 395.083 25.2585 393.772 25.2585ZM402.795 25V10.8182H407.743V13.5142H407.891C408.15 12.517 408.559 11.7876 409.119 11.326C409.685 10.8643 410.347 10.6335 411.104 10.6335C411.326 10.6335 411.544 10.652 411.76 10.6889C411.981 10.7197 412.194 10.7659 412.397 10.8274V15.1761C412.144 15.09 411.834 15.0253 411.464 14.9822C411.095 14.9392 410.778 14.9176 410.513 14.9176C410.015 14.9176 409.565 15.0315 409.165 15.2592C408.771 15.4808 408.461 15.7947 408.233 16.201C408.005 16.6011 407.891 17.072 407.891 17.6136V25H402.795Z" fill="#F8A11F"/>
<path d="M8.49432 184H1.21875V165.091H8.42046C10.3655 165.091 12.0459 165.469 13.4616 166.227C14.8835 166.978 15.9792 168.061 16.7486 169.477C17.5241 170.886 17.9119 172.576 17.9119 174.545C17.9119 176.515 17.5272 178.208 16.7578 179.624C15.9884 181.033 14.8989 182.116 13.4893 182.874C12.0798 183.625 10.4148 184 8.49432 184ZM6.35227 179.642H8.30966C9.24527 179.642 10.0424 179.491 10.701 179.19C11.3658 178.888 11.8705 178.368 12.2152 177.629C12.5661 176.891 12.7415 175.863 12.7415 174.545C12.7415 173.228 12.563 172.2 12.206 171.462C11.8551 170.723 11.3381 170.203 10.6548 169.901C9.97775 169.6 9.14678 169.449 8.16193 169.449H6.35227V179.642ZM24.3127 184.222C23.4078 184.222 22.6077 184.074 21.9121 183.778C21.2227 183.477 20.681 183.021 20.2871 182.412C19.8932 181.803 19.6962 181.027 19.6962 180.085C19.6962 179.31 19.8285 178.648 20.0932 178.1C20.3579 177.546 20.7272 177.094 21.2012 176.743C21.6751 176.392 22.226 176.124 22.8539 175.94C23.4879 175.755 24.1711 175.635 24.9036 175.58C25.6976 175.518 26.3347 175.444 26.8148 175.358C27.3011 175.266 27.6519 175.139 27.8674 174.979C28.0828 174.813 28.1905 174.595 28.1905 174.324V174.287C28.1905 173.918 28.0489 173.634 27.7658 173.438C27.4827 173.241 27.1195 173.142 26.6763 173.142C26.19 173.142 25.793 173.25 25.4853 173.465C25.1837 173.674 25.0021 173.998 24.9405 174.435H20.2502C20.3117 173.573 20.5856 172.779 21.0719 172.053C21.5643 171.32 22.2814 170.735 23.2232 170.298C24.165 169.855 25.3406 169.634 26.7502 169.634C27.7658 169.634 28.6768 169.754 29.4831 169.994C30.2895 170.228 30.9758 170.557 31.5421 170.982C32.1084 171.4 32.5392 171.893 32.8347 172.459C33.1363 173.019 33.2871 173.628 33.2871 174.287V184H28.5229V182.006H28.4121C28.129 182.535 27.7843 182.963 27.378 183.289C26.9779 183.615 26.5194 183.852 26.0023 184C25.4914 184.148 24.9282 184.222 24.3127 184.222ZM25.9746 181.009C26.3624 181.009 26.7256 180.929 27.0641 180.768C27.4088 180.608 27.6889 180.378 27.9043 180.076C28.1197 179.774 28.2275 179.408 28.2275 178.977V177.795C28.092 177.851 27.9474 177.903 27.7935 177.952C27.6458 178.002 27.4857 178.048 27.3134 178.091C27.1472 178.134 26.9687 178.174 26.7779 178.211C26.5932 178.248 26.3993 178.282 26.1962 178.312C25.8023 178.374 25.4791 178.476 25.2267 178.617C24.9805 178.753 24.7959 178.922 24.6728 179.125C24.5558 179.322 24.4973 179.544 24.4973 179.79C24.4973 180.184 24.6358 180.485 24.9128 180.695C25.1898 180.904 25.5437 181.009 25.9746 181.009ZM35.7223 184V169.818H40.6712V172.514H40.8189C41.0774 171.517 41.4867 170.788 42.0469 170.326C42.6132 169.864 43.2749 169.634 44.032 169.634C44.2536 169.634 44.4721 169.652 44.6875 169.689C44.9091 169.72 45.1214 169.766 45.3246 169.827V174.176C45.0722 174.09 44.7614 174.025 44.392 173.982C44.0227 173.939 43.7057 173.918 43.4411 173.918C42.9425 173.918 42.4931 174.031 42.093 174.259C41.6991 174.481 41.3883 174.795 41.1605 175.201C40.9328 175.601 40.8189 176.072 40.8189 176.614V184H35.7223ZM56.0371 169.818V173.511H46.6934V169.818H56.0371ZM48.503 166.42H53.5996V179.439C53.5996 179.636 53.6335 179.802 53.7012 179.938C53.7689 180.067 53.8735 180.165 54.0151 180.233C54.1567 180.295 54.3382 180.325 54.5598 180.325C54.7137 180.325 54.8922 180.307 55.0953 180.27C55.3046 180.233 55.4585 180.202 55.557 180.178L56.2956 183.76C56.0679 183.828 55.7417 183.911 55.3169 184.009C54.8984 184.108 54.3998 184.172 53.8212 184.203C52.6517 184.265 51.6699 184.145 50.8759 183.843C50.0819 183.535 49.4848 183.052 49.0847 182.393C48.6846 181.735 48.4907 180.91 48.503 179.919V166.42Z" fill="#F8A11F"/>
<path d="M703.872 584.182H698.665C698.628 583.751 698.529 583.36 698.369 583.009C698.215 582.658 698 582.357 697.723 582.104C697.452 581.846 697.123 581.649 696.735 581.513C696.347 581.372 695.907 581.301 695.415 581.301C694.553 581.301 693.824 581.51 693.227 581.929C692.636 582.348 692.186 582.948 691.879 583.729C691.577 584.511 691.426 585.45 691.426 586.545C691.426 587.703 691.58 588.672 691.888 589.454C692.202 590.229 692.654 590.814 693.245 591.208C693.836 591.596 694.547 591.79 695.378 591.79C695.852 591.79 696.277 591.731 696.652 591.614C697.027 591.491 697.354 591.316 697.631 591.088C697.908 590.86 698.132 590.586 698.305 590.266C698.483 589.94 698.603 589.574 698.665 589.168L703.872 589.205C703.811 590.005 703.586 590.82 703.198 591.651C702.81 592.476 702.259 593.239 701.545 593.941C700.838 594.637 699.96 595.197 698.914 595.621C697.868 596.046 696.652 596.259 695.267 596.259C693.531 596.259 691.974 595.886 690.595 595.141C689.223 594.397 688.136 593.301 687.336 591.854C686.542 590.408 686.145 588.638 686.145 586.545C686.145 584.44 686.551 582.668 687.364 581.227C688.176 579.781 689.272 578.688 690.651 577.95C692.029 577.205 693.568 576.832 695.267 576.832C696.461 576.832 697.56 576.996 698.563 577.322C699.567 577.648 700.447 578.125 701.204 578.753C701.961 579.375 702.57 580.141 703.032 581.052C703.494 581.963 703.774 583.006 703.872 584.182ZM711.926 593.415V579.75H716.062V593.415H711.926ZM707.161 588.651V584.514H720.826V588.651H707.161ZM729.953 593.415V579.75H734.089V593.415H729.953ZM725.189 588.651V584.514H738.854V588.651H725.189Z" fill="#F8A11F"/>
<path d="M703.872 178.182H698.665C698.628 177.751 698.529 177.36 698.369 177.009C698.215 176.658 698 176.357 697.723 176.104C697.452 175.846 697.123 175.649 696.735 175.513C696.347 175.372 695.907 175.301 695.415 175.301C694.553 175.301 693.824 175.51 693.227 175.929C692.636 176.348 692.186 176.948 691.879 177.729C691.577 178.511 691.426 179.45 691.426 180.545C691.426 181.703 691.58 182.672 691.888 183.454C692.202 184.229 692.654 184.814 693.245 185.208C693.836 185.596 694.547 185.79 695.378 185.79C695.852 185.79 696.277 185.731 696.652 185.614C697.027 185.491 697.354 185.316 697.631 185.088C697.908 184.86 698.132 184.586 698.305 184.266C698.483 183.94 698.603 183.574 698.665 183.168L703.872 183.205C703.811 184.005 703.586 184.82 703.198 185.651C702.81 186.476 702.259 187.239 701.545 187.941C700.838 188.637 699.96 189.197 698.914 189.621C697.868 190.046 696.652 190.259 695.267 190.259C693.531 190.259 691.974 189.886 690.595 189.141C689.223 188.397 688.136 187.301 687.336 185.854C686.542 184.408 686.145 182.638 686.145 180.545C686.145 178.44 686.551 176.668 687.364 175.227C688.176 173.781 689.272 172.688 690.651 171.95C692.029 171.205 693.568 170.832 695.267 170.832C696.461 170.832 697.56 170.996 698.563 171.322C699.567 171.648 700.447 172.125 701.204 172.753C701.961 173.375 702.57 174.141 703.032 175.052C703.494 175.963 703.774 177.006 703.872 178.182ZM713.514 190L716.616 171.091H720.309L717.207 190H713.514ZM705.13 185.679L705.758 181.986H720.974L720.346 185.679H705.13ZM706.866 190L709.968 171.091H713.661L710.559 190H706.866ZM706.201 179.105L706.829 175.412H722.045L721.417 179.105H706.201Z" fill="#F8A11F"/>
<path d="M330.219 768V749.091H343.514V753.227H335.352V756.477H342.702V760.614H335.352V768H330.219ZM345.476 768V753.818H350.573V768H345.476ZM348.025 752.341C347.335 752.341 346.744 752.113 346.252 751.658C345.759 751.202 345.513 750.654 345.513 750.014C345.513 749.374 345.759 748.826 346.252 748.371C346.744 747.915 347.335 747.688 348.025 747.688C348.72 747.688 349.311 747.915 349.797 748.371C350.29 748.826 350.536 749.374 350.536 750.014C350.536 750.654 350.29 751.202 349.797 751.658C349.311 752.113 348.72 752.341 348.025 752.341ZM360.002 773.614C358.58 773.614 357.361 773.411 356.346 773.004C355.336 772.604 354.551 772.05 353.991 771.342C353.437 770.641 353.126 769.834 353.059 768.923H357.971C358.02 769.225 358.143 769.468 358.34 769.653C358.537 769.837 358.789 769.97 359.097 770.05C359.411 770.136 359.762 770.179 360.15 770.179C360.808 770.179 361.353 770.019 361.784 769.699C362.221 769.379 362.439 768.8 362.439 767.963V765.562H362.292C362.107 766.043 361.824 766.452 361.442 766.79C361.061 767.123 360.602 767.378 360.067 767.557C359.531 767.729 358.943 767.815 358.303 767.815C357.294 767.815 356.364 767.581 355.515 767.114C354.671 766.646 353.994 765.904 353.483 764.888C352.979 763.873 352.726 762.546 352.726 760.909C352.726 759.198 352.991 757.807 353.52 756.736C354.056 755.665 354.745 754.88 355.589 754.381C356.438 753.883 357.331 753.634 358.266 753.634C358.968 753.634 359.583 753.757 360.113 754.003C360.642 754.243 361.085 754.566 361.442 754.972C361.799 755.372 362.07 755.812 362.255 756.293H362.366V753.818H367.462V767.963C367.462 769.163 367.151 770.182 366.53 771.019C365.914 771.862 365.046 772.506 363.926 772.949C362.806 773.392 361.498 773.614 360.002 773.614ZM360.187 764.196C360.654 764.196 361.055 764.067 361.387 763.808C361.725 763.544 361.984 763.168 362.162 762.682C362.347 762.189 362.439 761.598 362.439 760.909C362.439 760.207 362.347 759.607 362.162 759.109C361.984 758.604 361.725 758.219 361.387 757.955C361.055 757.684 360.654 757.548 360.187 757.548C359.719 757.548 359.319 757.684 358.986 757.955C358.66 758.219 358.408 758.604 358.229 759.109C358.057 759.607 357.971 760.207 357.971 760.909C357.971 761.611 358.057 762.208 358.229 762.7C358.408 763.187 358.66 763.559 358.986 763.817C359.319 764.07 359.719 764.196 360.187 764.196ZM370.054 768V753.818H374.892V756.514H375.04C375.336 755.628 375.84 754.926 376.554 754.409C377.268 753.892 378.118 753.634 379.103 753.634C380.1 753.634 380.958 753.898 381.679 754.428C382.399 754.951 382.833 755.646 382.98 756.514H383.128C383.368 755.646 383.879 754.951 384.661 754.428C385.443 753.898 386.36 753.634 387.412 753.634C388.773 753.634 389.874 754.071 390.718 754.945C391.567 755.819 391.992 756.982 391.992 758.435V768H386.895V759.727C386.895 759.106 386.738 758.619 386.424 758.268C386.11 757.911 385.689 757.733 385.159 757.733C384.636 757.733 384.221 757.911 383.913 758.268C383.611 758.619 383.461 759.106 383.461 759.727V768H378.586V759.727C378.586 759.106 378.429 758.619 378.115 758.268C377.801 757.911 377.379 757.733 376.85 757.733C376.499 757.733 376.197 757.813 375.945 757.973C375.693 758.133 375.496 758.364 375.354 758.665C375.219 758.961 375.151 759.315 375.151 759.727V768H370.054ZM398.457 768.222C397.552 768.222 396.752 768.074 396.057 767.778C395.367 767.477 394.826 767.021 394.432 766.412C394.038 765.803 393.841 765.027 393.841 764.085C393.841 763.31 393.973 762.648 394.238 762.1C394.502 761.546 394.872 761.094 395.346 760.743C395.82 760.392 396.371 760.124 396.998 759.94C397.632 759.755 398.316 759.635 399.048 759.58C399.842 759.518 400.479 759.444 400.959 759.358C401.446 759.266 401.796 759.139 402.012 758.979C402.227 758.813 402.335 758.595 402.335 758.324V758.287C402.335 757.918 402.193 757.634 401.91 757.438C401.627 757.241 401.264 757.142 400.821 757.142C400.335 757.142 399.938 757.25 399.63 757.465C399.328 757.674 399.147 757.998 399.085 758.435H394.395C394.456 757.573 394.73 756.779 395.216 756.053C395.709 755.32 396.426 754.735 397.368 754.298C398.309 753.855 399.485 753.634 400.895 753.634C401.91 753.634 402.821 753.754 403.628 753.994C404.434 754.228 405.12 754.557 405.687 754.982C406.253 755.4 406.684 755.893 406.979 756.459C407.281 757.019 407.432 757.628 407.432 758.287V768H402.667V766.006H402.557C402.273 766.535 401.929 766.963 401.523 767.289C401.122 767.615 400.664 767.852 400.147 768C399.636 768.148 399.073 768.222 398.457 768.222ZM400.119 765.009C400.507 765.009 400.87 764.929 401.209 764.768C401.553 764.608 401.833 764.378 402.049 764.076C402.264 763.774 402.372 763.408 402.372 762.977V761.795C402.237 761.851 402.092 761.903 401.938 761.952C401.79 762.002 401.63 762.048 401.458 762.091C401.292 762.134 401.113 762.174 400.922 762.211C400.738 762.248 400.544 762.282 400.341 762.312C399.947 762.374 399.624 762.476 399.371 762.617C399.125 762.753 398.94 762.922 398.817 763.125C398.7 763.322 398.642 763.544 398.642 763.79C398.642 764.184 398.78 764.485 399.057 764.695C399.334 764.904 399.688 765.009 400.119 765.009Z" fill="#F8A11F"/>
<path d="M13.4986 589.332C13.4186 589.006 13.2924 588.72 13.12 588.474C12.9477 588.221 12.7322 588.009 12.4737 587.837C12.2214 587.658 11.9259 587.526 11.5874 587.44C11.255 587.347 10.8887 587.301 10.4886 587.301C9.62689 587.301 8.89134 587.507 8.28196 587.92C7.67874 588.332 7.21709 588.926 6.89702 589.702C6.5831 590.477 6.42614 591.413 6.42614 592.509C6.42614 593.616 6.57694 594.564 6.87855 595.352C7.18016 596.14 7.6295 596.743 8.22656 597.162C8.82363 597.58 9.56534 597.79 10.4517 597.79C11.2334 597.79 11.8828 597.676 12.3999 597.448C12.9231 597.22 13.3139 596.897 13.5724 596.479C13.831 596.06 13.9602 595.568 13.9602 595.001L14.8466 595.094H10.5256V591.438H18.9091V594.06C18.9091 595.783 18.5429 597.257 17.8104 598.482C17.084 599.701 16.0807 600.637 14.8004 601.289C13.5263 601.935 12.0644 602.259 10.4148 602.259C8.57434 602.259 6.95857 601.868 5.56747 601.086C4.17637 600.304 3.08996 599.19 2.30824 597.744C1.53267 596.297 1.14489 594.577 1.14489 592.582C1.14489 591.019 1.38187 589.634 1.85582 588.428C2.33594 587.221 3.00071 586.202 3.85014 585.371C4.69957 584.534 5.68135 583.903 6.79546 583.479C7.90956 583.048 9.10369 582.832 10.3778 582.832C11.4981 582.832 12.5384 582.992 13.4986 583.312C14.465 583.626 15.3175 584.076 16.0561 584.661C16.8009 585.239 17.401 585.925 17.8565 586.719C18.312 587.513 18.589 588.384 18.6875 589.332H13.4986ZM22.2653 602V587.818H27.3619V602H22.2653ZM24.8136 586.341C24.1242 586.341 23.5333 586.113 23.0408 585.658C22.5484 585.202 22.3022 584.654 22.3022 584.014C22.3022 583.374 22.5484 582.826 23.0408 582.371C23.5333 581.915 24.1242 581.688 24.8136 581.688C25.5091 581.688 26.1 581.915 26.5863 582.371C27.0787 582.826 27.3249 583.374 27.3249 584.014C27.3249 584.654 27.0787 585.202 26.5863 585.658C26.1 586.113 25.5091 586.341 24.8136 586.341ZM38.416 587.818V591.511H29.0723V587.818H38.416ZM30.8819 584.42H35.9785V597.439C35.9785 597.636 36.0124 597.802 36.0801 597.938C36.1478 598.067 36.2524 598.165 36.394 598.233C36.5356 598.295 36.7172 598.325 36.9387 598.325C37.0926 598.325 37.2711 598.307 37.4743 598.27C37.6835 598.233 37.8374 598.202 37.9359 598.178L38.6745 601.76C38.4468 601.828 38.1206 601.911 37.6958 602.009C37.2773 602.108 36.7787 602.172 36.2001 602.203C35.0306 602.265 34.0488 602.145 33.2548 601.843C32.4608 601.535 31.8637 601.052 31.4636 600.393C31.0635 599.735 30.8696 598.91 30.8819 597.919V584.42Z" fill="#F8A11F"/>
<defs>
<clipPath id="clip0_206_45">
<rect width="596.613" height="677.925" fill="white" transform="translate(71 48)"/>
</clipPath>
</defs>
</svg>
